<svg width="450" height="700" viewBox="0 0 450 700" xmlns="http://www.w3.org/2000/svg" xmlns:xlink="http://www.w3.org/1999/xlink">
  <defs>
    <style>
      @import url('https://fonts.googleapis.com/css2?family=JetBrains+Mono:wght@400;700;800&amp;display=swap');

      .font-mono { font-family: 'JetBrains Mono', monospace; }
      .bold { font-weight: 800; }

      /* Scratch Layer */
      .scratch-box {
        fill: #111;
        stroke: #adff02;
        stroke-width: 1.5;
        cursor: pointer;
        transition: all 0.2s ease;
      }
      .scratch-box:hover { fill: #1a1a1a; stroke-width: 2.5; }

      /* Reveal */
      @keyframes scratch-reveal {
        0%   { opacity: 1; transform: scale(1); filter: blur(0px); }
        30%  { transform: scale(1.06) rotate(2deg); filter: blur(3px); }
        100% { opacity: 0; transform: scale(1.3) rotate(-6deg); filter: blur(12px); pointer-events: none; }
      }
      .revealed { animation: scratch-reveal 0.55s forwards ease-out; }

      /* Scanline sweep */
      @keyframes scanline-move {
        0%   { transform: translateY(-8px); }
        100% { transform: translateY(708px); }
      }
      .scanline { fill: #adff02; opacity: 0.04; animation: scanline-move 4s linear infinite; }

      /* Flicker */
      @keyframes flicker {
        0%, 100% { opacity: 1; }
        48%       { opacity: 0.85; }
        50%       { opacity: 1; }
        97%       { opacity: 0.9; }
      }
      .flicker { animation: flicker 3s infinite; }

      /* Win-line pulse */
      @keyframes win-pulse {
        0%, 100% { opacity: 1; }
        50%       { opacity: 0.4; }
      }
      .win-line { animation: win-pulse 0.8s infinite; }

      .label-sub { font-size: 9px; fill: #adff02; opacity: 0.55; letter-spacing: 1.5px; }
      .noise-bg  { opacity: 0.025; pointer-events: none; }
    </style>

    <!-- ── Glow Filters ── -->
    <filter id="green-glow" x="-25%" y="-25%" width="150%" height="150%">
      <feGaussianBlur in="SourceGraphic" stdDeviation="3" result="blur"/>
      <feMerge><feMergeNode in="blur"/><feMergeNode in="SourceGraphic"/></feMerge>
    </filter>
    <filter id="pink-glow" x="-25%" y="-25%" width="150%" height="150%">
      <feGaussianBlur in="SourceGraphic" stdDeviation="4" result="blur"/>
      <feMerge><feMergeNode in="blur"/><feMergeNode in="SourceGraphic"/></feMerge>
    </filter>
    <filter id="logo-shadow" x="-10%" y="-10%" width="120%" height="120%">
      <feDropShadow dx="0" dy="0" stdDeviation="6" flood-color="#adff02" flood-opacity="0.6"/>
    </filter>
    <filter id="noise-filter">
      <feTurbulence type="fractalNoise" baseFrequency="0.75" numOctaves="4" stitchTiles="stitch"/>
    </filter>

    <!-- ── Luxury Logo Gradients (from enhanced_logo_v6) ── -->
    <linearGradient id="luxury-gold" x1="-50%" y1="-50%" x2="150%" y2="150%">
      <stop offset="0%"   stop-color="#C59B42"/>
      <stop offset="25%"  stop-color="#FDF0A6"/>
      <stop offset="50%"  stop-color="#A67B27"/>
      <stop offset="75%"  stop-color="#FFF8C9"/>
      <stop offset="100%" stop-color="#916112"/>
      <animate attributeName="x1" values="-50%;150%;-50%" dur="12s" repeatCount="indefinite"/>
      <animate attributeName="x2" values="50%;250%;50%"  dur="12s" repeatCount="indefinite"/>
    </linearGradient>
    <linearGradient id="luxury-platinum" x1="150%" y1="-50%" x2="-50%" y2="150%">
      <stop offset="0%"   stop-color="#A0A5AA"/>
      <stop offset="30%"  stop-color="#FFFFFF"/>
      <stop offset="50%"  stop-color="#E1E5E9"/>
      <stop offset="70%"  stop-color="#FFFFFF"/>
      <stop offset="100%" stop-color="#8B9096"/>
      <animate attributeName="x1" values="150%;-50%;150%" dur="10s" repeatCount="indefinite"/>
      <animate attributeName="x2" values="250%;50%;250%"  dur="10s" repeatCount="indefinite"/>
    </linearGradient>
    <linearGradient id="gold-sweep" x1="0%" y1="0%" x2="100%" y2="100%">
      <stop offset="0%"   stop-color="white" stop-opacity="0"/>
      <stop offset="50%"  stop-color="white" stop-opacity="0.16"/>
      <stop offset="100%" stop-color="white" stop-opacity="0"/>
    </linearGradient>

    <!-- ── TM Logo Path (from enhanced_logo_v6) ── -->
    <mask id="hole-mask">
      <rect x="-40" y="-40" width="80" height="80" fill="white"/>
      <circle cx="0" cy="0" r="5" fill="black"/>
    </mask>
    <symbol id="logo-path" viewBox="0 0 600 600">
      <g transform="translate(0,600) scale(0.1,-0.1)" stroke="none">
        <path fill="url(#luxury-gold)" d="M1140 3980 l0 -320 350 0 350 0 0 -985 0 -985 345 0 c190 0 345 2 345 5 0 4 -7 19 -15 34 -20 40 -32 1392 -13 1431 21 40 74 61 125 50 23 -6 136 -26 250 -45 114 -20 267 -46 338 -60 72 -13 187 -33 257 -45 145 -23 166 -30 191 -58 34 -37 31 -87 -12 -272 -78 -338 -171 -753 -168 -756 1 -2 24 36 51 84 147 261 179 319 251 442 43 74 114 198 158 275 44 77 95 166 113 198 19 32 35 64 36 70 2 7 5 -294 8 -668 l5 -680 328 -3 327 -2 0 1305 0 1305 -336 -2 -337 -3 -110 -180 c-255 -417 -368 -604 -403 -660 -28 -46 -39 -56 -46 -45 -4 8 -47 80 -95 160 -87 147 -277 469 -374 637 l-54 92 -932 1 -933 0 0 -320z"/>
        <path fill="url(#luxury-platinum)" d="M3025 3519 c-9 -17 -15 -32 -13 -33 7 -6 278 -48 286 -44 5 1 5 17 0 34 -8 31 -9 32 -121 53 -61 12 -118 21 -124 21 -7 0 -20 -14 -28 -31z"/>
        <rect width="6000" height="6000" fill="url(#gold-sweep)" pointer-events="none">
          <animateTransform attributeName="transform" type="translate" values="-6000,-6000; 6000,6000" dur="8s" repeatCount="indefinite"/>
        </rect>
      </g>
    </symbol>

    <!-- ── Decorative elements for background pattern ── -->
    <g id="flower-round">
      <circle cx="0" cy="0" r="22" fill="none" stroke="url(#luxury-gold)" stroke-width="3"/>
      <g fill="url(#luxury-platinum)" mask="url(#hole-mask)">
        <circle cx="0" cy="-10" r="8"/>
        <circle cx="0" cy="10"  r="8"/>
        <circle cx="-10" cy="0" r="8"/>
        <circle cx="10"  cy="0" r="8"/>
      </g>
    </g>
    <g id="flower-point">
      <path d="M 0,-24 Q 4,-4 24,0 Q 4,4 0,24 Q -4,4 -24,0 Q -4,-4 0,-24 Z" fill="#9945ff" fill-opacity="0.4"/>
    </g>
    <g id="diamond-star">
      <polygon points="0,-28 28,0 0,28 -28,0" fill="none" stroke="url(#luxury-gold)" stroke-width="2"/>
      <path d="M 0,-13 Q 3,-3 13,0 Q 3,3 0,13 Q -3,3 -13,0 Q -3,-3 0,-13 Z" fill="url(#luxury-platinum)"/>
    </g>

    <!-- ── Tiling background pattern ── -->
    <pattern id="lv-pattern" width="280" height="280" patternUnits="userSpaceOnUse">
      <animateTransform attributeName="patternTransform" type="translate" values="0,0;-280,-280" dur="45s" repeatCount="indefinite"/>
      <use href="#logo-path" x="-40" y="-40" width="80" height="80"/>
      <use href="#logo-path" x="240" y="-40" width="80" height="80"/>
      <use href="#logo-path" x="-40" y="240" width="80" height="80"/>
      <use href="#logo-path" x="240" y="240" width="80" height="80"/>
      <use href="#logo-path" x="100"  y="100"  width="80" height="80"/>
      <g transform="translate(140,0)">  <use href="#flower-round"/></g>
      <g transform="translate(140,280)"><use href="#flower-round"/></g>
      <g transform="translate(0,140)">  <use href="#flower-round"/></g>
      <g transform="translate(280,140)"><use href="#flower-round"/></g>
      <g transform="translate(70,70)">  <use href="#flower-point"/></g>
      <g transform="translate(210,70)"> <use href="#diamond-star"/></g>
      <g transform="translate(70,210)"> <use href="#diamond-star"/></g>
      <g transform="translate(210,210)"><use href="#flower-point"/></g>
    </pattern>

    <!-- ── Scratch cell clip paths ── -->
    <clipPath id="cell-clip-0"><rect x="0" y="0" width="110" height="110" rx="2"/></clipPath>
    <clipPath id="cell-clip-1"><rect x="0" y="0" width="110" height="110" rx="2"/></clipPath>
    <clipPath id="cell-clip-2"><rect x="0" y="0" width="110" height="110" rx="2"/></clipPath>
    <clipPath id="cell-clip-3"><rect x="0" y="0" width="110" height="110" rx="2"/></clipPath>
    <clipPath id="cell-clip-4"><rect x="0" y="0" width="110" height="110" rx="2"/></clipPath>
    <clipPath id="cell-clip-5"><rect x="0" y="0" width="110" height="110" rx="2"/></clipPath>
    <clipPath id="cell-clip-6"><rect x="0" y="0" width="110" height="110" rx="2"/></clipPath>
    <clipPath id="cell-clip-7"><rect x="0" y="0" width="110" height="110" rx="2"/></clipPath>
    <clipPath id="cell-clip-8"><rect x="0" y="0" width="110" height="110" rx="2"/></clipPath>
  </defs>

  <!-- ══════════════════════════════════════════════════ -->
  <!-- BASE                                               -->
  <!-- ══════════════════════════════════════════════════ -->
  <rect width="450" height="700" fill="#000"/>
  <rect width="450" height="700" fill="url(#lv-pattern)" opacity="0.55"/>
  <rect width="450" height="700" filter="url(#noise-filter)" class="noise-bg"/>

  <!-- Card border -->
  <rect x="12" y="12" width="426" height="676" fill="none" stroke="#adff02" stroke-width="1.5" rx="2"/>
  <!-- Inner border -->
  <rect x="18" y="18" width="414" height="664" fill="none" stroke="#adff02" stroke-width="0.4" opacity="0.3" rx="1"/>

  <!-- Scanline -->
  <rect width="450" height="6" class="scanline"/>

  <!-- ══════════════════════════════════════════════════ -->
  <!-- HEADER                                             -->
  <!-- ══════════════════════════════════════════════════ -->
  <rect x="12" y="12" width="426" height="108" fill="#000" fill-opacity="0.75"/>
  <line x1="12" y1="120" x2="438" y2="120" stroke="#adff02" stroke-width="1" opacity="0.6"/>

  <!-- Logo centered -->
  <image href="/assets/logo.svg" x="193" y="20" width="64" height="64" filter="url(#logo-shadow)"/>

  <!-- Brand name centered below logo -->
  <text x="225" y="98" text-anchor="middle" class="font-mono bold" style="font-size:18px; fill:#adff02; letter-spacing:3px;" filter="url(#green-glow)">TRASHMARKET.FUN</text>

  <!-- SCRATCH TICKET badge — centered top -->
  <rect x="155" y="20" width="140" height="22" fill="none" stroke="#adff02" stroke-width="0.8" opacity="0.5" rx="1"/>
  <text x="225" y="35" text-anchor="middle" class="font-mono bold" style="font-size:9px; fill:#adff02; letter-spacing:2.5px; opacity:0.7;">SCRATCH TICKET</text>

  <!-- Serial centered bottom of header -->
  <text x="225" y="113" text-anchor="middle" class="font-mono" style="font-size:7.5px; fill:#333; letter-spacing:1.5px;">GORBAGANA PROTOCOL · SERIES 01 · ID: 8787-DEBRIS</text>

  <!-- ══════════════════════════════════════════════════ -->
  <!-- PRIZE LEGEND                                       -->
  <!-- ══════════════════════════════════════════════════ -->
  <rect x="12" y="120" width="426" height="28" fill="#080808" fill-opacity="0.95"/>
  <text x="225" y="138" text-anchor="middle" class="font-mono bold" style="font-size:9px; fill:#adff02; letter-spacing:2px;">MATCH 3 IN A LINE — WIN UP TO 25,000 DEBRIS</text>

  <!-- ══════════════════════════════════════════════════ -->
  <!-- 3 × 3 SCRATCH GRID                                -->
  <!-- Center of card = 225. Grid width = 3×110 + 2×12 = 354. Left edge = (450-354)/2 = 48 -->
  <!-- Columns: 48, 170, 292  |  Rows: 157, 279, 401    -->
  <!-- ══════════════════════════════════════════════════ -->

  <!-- ── ROW 1 ── -->

  <!-- Cell 0: Alon -->
  <g transform="translate(48, 157)">
    <rect width="110" height="110" fill="#060606" stroke="#1c1c1c"/>
    <image href="/symbols/alon.webp" x="15" y="8" width="80" height="80"/>
    <text x="55" y="104" text-anchor="middle" class="font-mono label-sub">ALON · 1.5×</text>
    <g onclick="this.querySelector('.scratch-box').classList.add('revealed')">
      <rect class="scratch-box" width="110" height="110" rx="2"/>
      <text x="55" y="52" text-anchor="middle" class="font-mono bold" style="fill:#adff02; font-size:11px; pointer-events:none; letter-spacing:1.5px;">SCRATCH</text>
      <text x="55" y="68" text-anchor="middle" class="font-mono" style="fill:#adff02; font-size:8px; pointer-events:none; opacity:0.45; letter-spacing:1px;">▼  TAP  ▼</text>
    </g>
  </g>

  <!-- Cell 1: Gorbios -->
  <g transform="translate(170, 157)">
    <rect width="110" height="110" fill="#060606" stroke="#1c1c1c"/>
    <image href="/symbols/gorbios.webp" x="15" y="8" width="80" height="80"/>
    <text x="55" y="104" text-anchor="middle" class="font-mono label-sub">GORBIOS · 25×</text>
    <g onclick="this.querySelector('.scratch-box').classList.add('revealed')">
      <rect class="scratch-box" width="110" height="110" rx="2"/>
      <text x="55" y="52" text-anchor="middle" class="font-mono bold" style="fill:#adff02; font-size:11px; pointer-events:none; letter-spacing:1.5px;">SCRATCH</text>
      <text x="55" y="68" text-anchor="middle" class="font-mono" style="fill:#adff02; font-size:8px; pointer-events:none; opacity:0.45; letter-spacing:1px;">▼  TAP  ▼</text>
    </g>
  </g>

  <!-- Cell 2: Digibin -->
  <g transform="translate(292, 157)">
    <rect width="110" height="110" fill="#060606" stroke="#1c1c1c"/>
    <image href="/symbols/digibin.webp" x="15" y="8" width="80" height="80"/>
    <text x="55" y="104" text-anchor="middle" class="font-mono label-sub">DIGIBIN · 50×</text>
    <g onclick="this.querySelector('.scratch-box').classList.add('revealed')">
      <rect class="scratch-box" width="110" height="110" rx="2"/>
      <text x="55" y="52" text-anchor="middle" class="font-mono bold" style="fill:#adff02; font-size:11px; pointer-events:none; letter-spacing:1.5px;">SCRATCH</text>
      <text x="55" y="68" text-anchor="middle" class="font-mono" style="fill:#adff02; font-size:8px; pointer-events:none; opacity:0.45; letter-spacing:1px;">▼  TAP  ▼</text>
    </g>
  </g>

  <!-- ── ROW 2 ── -->

  <!-- Cell 3: Sky Garbage -->
  <g transform="translate(48, 279)">
    <rect width="110" height="110" fill="#060606" stroke="#1c1c1c"/>
    <image href="/symbols/sky-garbage.webp" x="15" y="8" width="80" height="80"/>
    <text x="55" y="104" text-anchor="middle" class="font-mono label-sub">SKY-GARB · 3×</text>
    <g onclick="this.querySelector('.scratch-box').classList.add('revealed')">
      <rect class="scratch-box" width="110" height="110" rx="2"/>
      <text x="55" y="52" text-anchor="middle" class="font-mono bold" style="fill:#adff02; font-size:11px; pointer-events:none; letter-spacing:1.5px;">SCRATCH</text>
      <text x="55" y="68" text-anchor="middle" class="font-mono" style="fill:#adff02; font-size:8px; pointer-events:none; opacity:0.45; letter-spacing:1px;">▼  TAP  ▼</text>
    </g>
  </g>

  <!-- Cell 4: Oscar (center) -->
  <g transform="translate(170, 279)">
    <rect width="110" height="110" fill="#060606" stroke="#1c1c1c"/>
    <image href="/symbols/oscar.webp" x="15" y="8" width="80" height="80"/>
    <text x="55" y="104" text-anchor="middle" class="font-mono label-sub">OSCAR · 8×</text>
    <g onclick="this.querySelector('.scratch-box').classList.add('revealed')">
      <rect class="scratch-box" width="110" height="110" rx="2"/>
      <text x="55" y="52" text-anchor="middle" class="font-mono bold" style="fill:#adff02; font-size:11px; pointer-events:none; letter-spacing:1.5px;">SCRATCH</text>
      <text x="55" y="68" text-anchor="middle" class="font-mono" style="fill:#adff02; font-size:8px; pointer-events:none; opacity:0.45; letter-spacing:1px;">▼  TAP  ▼</text>
    </g>
  </g>

  <!-- Cell 5: Shredder -->
  <g transform="translate(292, 279)">
    <rect width="110" height="110" fill="#060606" stroke="#1c1c1c"/>
    <image href="/symbols/shredder.webp" x="15" y="8" width="80" height="80"/>
    <text x="55" y="104" text-anchor="middle" class="font-mono label-sub">SHREDDER · 5×</text>
    <g onclick="this.querySelector('.scratch-box').classList.add('revealed')">
      <rect class="scratch-box" width="110" height="110" rx="2"/>
      <text x="55" y="52" text-anchor="middle" class="font-mono bold" style="fill:#adff02; font-size:11px; pointer-events:none; letter-spacing:1.5px;">SCRATCH</text>
      <text x="55" y="68" text-anchor="middle" class="font-mono" style="fill:#adff02; font-size:8px; pointer-events:none; opacity:0.45; letter-spacing:1px;">▼  TAP  ▼</text>
    </g>
  </g>

  <!-- ── ROW 3 ── -->

  <!-- Cell 6: Matress -->
  <g transform="translate(48, 401)">
    <rect width="110" height="110" fill="#060606" stroke="#1c1c1c"/>
    <image href="/symbols/matress.webp" x="15" y="8" width="80" height="80"/>
    <text x="55" y="104" text-anchor="middle" class="font-mono label-sub">MATRESS · 25×</text>
    <g onclick="this.querySelector('.scratch-box').classList.add('revealed')">
      <rect class="scratch-box" width="110" height="110" rx="2"/>
      <text x="55" y="52" text-anchor="middle" class="font-mono bold" style="fill:#adff02; font-size:11px; pointer-events:none; letter-spacing:1.5px;">SCRATCH</text>
      <text x="55" y="68" text-anchor="middle" class="font-mono" style="fill:#adff02; font-size:8px; pointer-events:none; opacity:0.45; letter-spacing:1px;">▼  TAP  ▼</text>
    </g>
  </g>

  <!-- Cell 7: Pump Pill -->
  <g transform="translate(170, 401)">
    <rect width="110" height="110" fill="#060606" stroke="#1c1c1c"/>
    <image href="/symbols/pump-pill.webp" x="15" y="8" width="80" height="80"/>
    <text x="55" y="104" text-anchor="middle" class="font-mono label-sub">PUMP PILL · 25×</text>
    <g onclick="this.querySelector('.scratch-box').classList.add('revealed')">
      <rect class="scratch-box" width="110" height="110" rx="2"/>
      <text x="55" y="52" text-anchor="middle" class="font-mono bold" style="fill:#adff02; font-size:11px; pointer-events:none; letter-spacing:1.5px;">SCRATCH</text>
      <text x="55" y="68" text-anchor="middle" class="font-mono" style="fill:#adff02; font-size:8px; pointer-events:none; opacity:0.45; letter-spacing:1px;">▼  TAP  ▼</text>
    </g>
  </g>

  <!-- Cell 8: Box -->
  <g transform="translate(292, 401)">
    <rect width="110" height="110" fill="#060606" stroke="#1c1c1c"/>
    <image href="/symbols/box.webp" x="15" y="8" width="80" height="80"/>
    <text x="55" y="104" text-anchor="middle" class="font-mono label-sub">BOX · 2×</text>
    <g onclick="this.querySelector('.scratch-box').classList.add('revealed')">
      <rect class="scratch-box" width="110" height="110" rx="2"/>
      <text x="55" y="52" text-anchor="middle" class="font-mono bold" style="fill:#adff02; font-size:11px; pointer-events:none; letter-spacing:1.5px;">SCRATCH</text>
      <text x="55" y="68" text-anchor="middle" class="font-mono" style="fill:#adff02; font-size:8px; pointer-events:none; opacity:0.45; letter-spacing:1px;">▼  TAP  ▼</text>
    </g>
  </g>

  <!-- ══════════════════════════════════════════════════ -->
  <!-- PRIZE INFO BAR                                     -->
  <!-- ══════════════════════════════════════════════════ -->
  <rect x="12" y="523" width="426" height="1" fill="#adff02" opacity="0.25"/>
  <rect x="12" y="524" width="426" height="92" fill="#050505" fill-opacity="0.97"/>

  <!-- Cost badge — centered -->
  <rect x="148" y="535" width="154" height="26" fill="#adff02" rx="1"/>
  <text x="225" y="552" text-anchor="middle" class="font-mono bold" style="font-size:10px; fill:#000; letter-spacing:1.5px;">500 GOR</text>

  <!-- Winnings — centered -->
  <text x="225" y="578" text-anchor="middle" class="font-mono bold" style="font-size:11px; fill:#adff02; letter-spacing:1px;" filter="url(#green-glow)">WINNINGS PAID IN DEBRIS</text>
  <text x="225" y="593" text-anchor="middle" class="font-mono" style="font-size:8px; fill:#444; letter-spacing:1.5px;">MATCH 3 IN ANY ROW · COL · DIAGONAL</text>
  <text x="225" y="607" text-anchor="middle" class="font-mono" style="font-size:7.5px; fill:#333; letter-spacing:1px;">DIGIBIN 50× · GORBIOS/MATRESS/PUMP PILL 25× · OSCAR 8×</text>

  <!-- ══════════════════════════════════════════════════ -->
  <!-- FOOTER BAR                                         -->
  <!-- ══════════════════════════════════════════════════ -->
  <rect x="12" y="616" width="426" height="1" fill="#adff02" opacity="0.2"/>
  <rect x="12" y="617" width="426" height="71" fill="#000" fill-opacity="0.65"/>

  <!-- Barcode — left aligned, decorative -->
  <g transform="translate(26, 632)">
    <path d="M0 0 L2 0 L2 18 L0 18 Z M5 0 L7 0 L7 18 L5 18 Z M10 0 L11 0 L11 18 L10 18 Z M14 0 L17 0 L17 18 L14 18 Z M21 0 L22 0 L22 18 L21 18 Z M25 0 L28 0 L28 18 L25 18 Z M32 0 L33 0 L33 18 L32 18 Z M36 0 L39 0 L39 18 L36 18 Z M43 0 L45 0 L45 18 L43 18 Z M48 0 L50 0 L50 18 L48 18 Z M53 0 L55 0 L55 18 L53 18 Z M58 0 L62 0 L62 18 L58 18 Z" fill="#adff02" opacity="0.6"/>
    <text x="0" y="28" class="font-mono" style="font-size:7px; fill:#2a2a2a; letter-spacing:0.5px;">TM-LOTTO-S01-DEBRIS</text>
  </g>

  <!-- Center: chain-verified badge -->
  <rect x="181" y="636" width="88" height="18" fill="none" stroke="#adff02" stroke-width="0.7" opacity="0.35" rx="1"/>
  <text x="225" y="649" text-anchor="middle" class="font-mono" style="font-size:7px; fill:#adff02; opacity:0.4; letter-spacing:1.5px;">CHAIN-VERIFIED</text>

  <!-- System online — right aligned, flicker -->
  <text x="424" y="649" text-anchor="end" class="font-mono flicker" style="fill:#adff02; font-size:9px;" filter="url(#green-glow)">● ONLINE</text>

  <!-- TX hash — centered bottom -->
  <text x="225" y="674" text-anchor="middle" class="font-mono" style="font-size:7px; fill:#222; letter-spacing:0.5px;">TX: 0xTRASH...DEBRIS // GORBAGANA CHAIN</text>

</svg>
