<svg id="svg" version="1.1" xmlns="http://www.w3.org/2000/svg" xmlns:xlink="http://www.w3.org/1999/xlink" width="400" height="400" viewBox="0, 0, 400,400"><g id="svgg"><path id="path0" d="M76.000 134.597 L 76.000 155.594 99.272 155.697 L 122.544 155.800 122.461 221.170 C 122.404 266.278,122.508 286.619,122.796 286.798 C 123.229 287.065,168.081 286.849,168.354 286.578 C 168.439 286.494,168.244 286.014,167.920 285.512 C 166.457 283.242,166.435 282.629,166.171 236.826 C 165.895 188.930,165.869 189.735,167.749 187.662 C 169.880 185.312,171.637 185.141,178.874 186.579 C 181.583 187.117,185.780 187.855,188.200 188.218 C 190.620 188.582,194.310 189.227,196.400 189.653 C 198.490 190.078,201.820 190.678,203.800 190.985 C 205.780 191.293,210.550 192.106,214.400 192.793 C 218.250 193.479,225.540 194.755,230.600 195.628 C 242.643 197.706,243.605 198.074,245.209 201.218 C 246.593 203.930,246.391 205.762,243.205 219.400 C 242.537 222.260,241.362 227.480,240.595 231.000 C 239.828 234.520,238.656 239.740,237.990 242.600 C 237.324 245.460,236.505 249.060,236.170 250.600 C 235.836 252.140,235.013 255.740,234.343 258.600 C 233.170 263.610,232.407 267.600,232.623 267.600 C 232.680 267.600,233.857 265.575,235.238 263.100 C 236.619 260.625,238.736 256.890,239.942 254.800 C 241.148 252.710,242.526 250.280,243.004 249.400 C 244.155 247.279,246.401 243.337,250.070 237.000 C 256.530 225.843,265.799 209.712,266.734 208.000 C 267.275 207.010,268.996 203.950,270.559 201.200 L 273.400 196.200 273.502 241.453 L 273.603 286.706 276.902 286.950 C 279.358 287.132,313.429 287.030,316.700 286.830 C 317.098 286.806,317.200 269.197,317.200 200.200 L 317.200 113.600 294.877 113.600 L 272.554 113.600 270.241 117.500 C 268.969 119.645,267.449 122.160,266.864 123.088 C 266.279 124.016,263.484 128.606,260.653 133.288 C 257.822 137.970,254.131 144.050,252.451 146.800 C 250.771 149.550,247.436 155.040,245.040 159.000 C 242.643 162.960,239.618 167.884,238.317 169.942 C 237.015 172.000,236.016 173.749,236.096 173.830 C 236.177 173.910,238.033 174.253,240.221 174.592 C 255.523 176.964,255.626 177.018,255.060 182.427 C 254.044 192.149,252.669 193.536,245.400 192.172 C 240.973 191.341,230.110 189.381,223.400 188.201 C 220.320 187.660,214.200 186.580,209.800 185.801 C 205.400 185.023,198.740 183.859,195.000 183.214 C 191.260 182.569,185.680 181.595,182.600 181.050 C 179.520 180.504,174.840 179.682,172.200 179.223 C 162.656 177.564,162.274 177.164,163.602 170.222 C 165.423 160.704,164.389 161.043,182.000 164.196 C 186.510 165.003,190.920 165.748,191.800 165.850 L 193.400 166.037 195.800 161.953 C 199.559 155.557,199.759 155.491,209.800 157.335 C 213.100 157.941,217.357 158.682,219.260 158.983 C 224.353 159.787,225.268 160.534,226.018 164.502 C 226.236 165.656,226.799 167.883,227.269 169.450 L 228.123 172.300 230.162 172.743 C 231.283 172.986,232.961 173.301,233.890 173.442 L 235.581 173.699 232.868 168.950 C 229.970 163.877,225.163 155.766,220.806 148.600 C 219.335 146.180,217.670 143.390,217.107 142.400 C 214.122 137.153,208.847 128.126,204.784 121.312 L 200.200 113.624 138.100 113.612 L 76.000 113.600 76.000 134.597 M201.803 165.431 C 200.427 167.779,199.104 167.309,213.600 169.626 C 216.350 170.066,218.915 170.522,219.300 170.640 C 220.120 170.891,220.154 170.565,219.556 168.190 C 219.040 166.142,219.629 166.386,211.431 164.818 C 202.968 163.200,203.116 163.190,201.803 165.431 " stroke="none" fill="#040504" fill-rule="evenodd"></path><path id="path1" d="M0.000 200.000 L 0.000 400.000 200.000 400.000 L 400.000 400.000 400.000 200.000 L 400.000 0.000 200.000 0.000 L 0.000 0.000 0.000 200.000 M204.784 121.312 C 208.847 128.126,214.122 137.153,217.107 142.400 C 217.670 143.390,219.335 146.180,220.806 148.600 C 225.163 155.766,229.970 163.877,232.868 168.950 L 235.581 173.699 233.890 173.442 C 232.961 173.301,231.283 172.986,230.162 172.743 L 228.123 172.300 227.269 169.450 C 226.799 167.883,226.236 165.656,226.018 164.502 C 225.268 160.534,224.353 159.787,219.260 158.983 C 217.357 158.682,213.100 157.941,209.800 157.335 C 199.759 155.491,199.559 155.557,195.800 161.953 L 193.400 166.037 191.800 165.850 C 190.920 165.748,186.510 165.003,182.000 164.196 C 164.389 161.043,165.423 160.704,163.602 170.222 C 162.274 177.164,162.656 177.564,172.200 179.223 C 174.840 179.682,179.520 180.504,182.600 181.050 C 185.680 181.595,191.260 182.569,195.000 183.214 C 198.740 183.859,205.400 185.023,209.800 185.801 C 214.200 186.580,220.320 187.660,223.400 188.201 C 230.110 189.381,240.973 191.341,245.400 192.172 C 252.669 193.536,254.044 192.149,255.060 182.427 C 255.626 177.018,255.523 176.964,240.221 174.592 C 238.033 174.253,236.177 173.910,236.096 173.830 C 236.016 173.749,237.015 172.000,238.317 169.942 C 239.618 167.884,242.643 162.960,245.040 159.000 C 247.436 155.040,250.771 149.550,252.451 146.800 C 254.131 144.050,257.822 137.970,260.653 133.288 C 263.484 128.606,266.279 124.016,266.864 123.088 C 267.449 122.160,268.969 119.645,270.241 117.500 L 272.554 113.600 294.877 113.600 L 317.200 113.600 317.200 200.200 C 317.200 269.197,317.098 286.806,316.700 286.830 C 313.429 287.030,279.358 287.132,276.902 286.950 L 273.603 286.706 273.502 241.453 L 273.400 196.200 270.559 201.200 C 268.996 203.950,267.275 207.010,266.734 208.000 C 265.799 209.712,256.530 225.843,250.070 237.000 C 246.401 243.337,244.155 247.279,243.004 249.400 C 242.526 250.280,241.148 252.710,239.942 254.800 C 238.736 256.890,236.619 260.625,235.238 263.100 C 233.857 265.575,232.680 267.600,232.623 267.600 C 232.407 267.600,233.170 263.610,234.343 258.600 C 235.013 255.740,235.836 252.140,236.170 250.600 C 236.505 249.060,237.324 245.460,237.990 242.600 C 238.656 239.740,239.828 234.520,240.595 231.000 C 241.362 227.480,242.537 222.260,243.205 219.400 C 248.055 198.638,248.055 198.640,230.600 195.628 C 225.540 194.755,218.250 193.479,214.400 192.793 C 210.550 192.106,205.780 191.293,203.800 190.985 C 201.820 190.678,198.490 190.078,196.400 189.653 C 194.310 189.227,190.620 188.582,188.200 188.218 C 185.780 187.855,181.583 187.117,178.874 186.579 C 171.637 185.141,169.880 185.312,167.749 187.662 C 165.869 189.735,165.895 188.930,166.171 236.826 C 166.435 282.629,166.457 283.242,167.920 285.512 C 168.244 286.014,168.439 286.494,168.354 286.578 C 168.081 286.849,123.229 287.065,122.796 286.798 C 122.508 286.619,122.404 266.278,122.461 221.170 L 122.544 155.800 99.272 155.697 L 76.000 155.594 76.000 134.597 L 76.000 113.600 138.100 113.612 L 200.200 113.624 204.784 121.312 M211.431 164.818 C 219.629 166.386,219.040 166.142,219.556 168.190 C 220.154 170.565,220.120 170.891,219.300 170.640 C 218.915 170.522,216.350 170.066,213.600 169.626 C 199.104 167.309,200.427 167.779,201.803 165.431 C 203.116 163.190,202.968 163.200,211.431 164.818 " stroke="none" fill="#cbf30c" fill-rule="evenodd"></path></g></svg>