<svg id="svg" version="1.1" viewBox="0 0 300 150" width="300" height="150" xmlns="http://www.w3.org/2000/svg"><svg xmlns="http://www.w3.org/2000/svg"><defs><clipPath id="clip-1"><rect x="0" y="0" transform="scale(0.14648,0.14648)" width="2048" height="1024" fill="none"/></clipPath><linearGradient x1="180.97266" y1="144.40063" x2="124.39761" y2="25.61895" gradientUnits="userSpaceOnUse" id="color-1"><stop offset="0" stop-color="#7ca625"/><stop offset="1" stop-color="#a5d443"/></linearGradient><linearGradient x1="173.56348" y1="123.63618" x2="123.91582" y2="25.71475" gradientUnits="userSpaceOnUse" id="color-2"><stop offset="0" stop-color="#7dac1b"/><stop offset="1" stop-color="#b8e163"/></linearGradient><linearGradient x1="81.91904" y1="108.62212" x2="78.03428" y2="41.33906" gradientUnits="userSpaceOnUse" id="color-3"><stop offset="0" stop-color="#88b42c"/><stop offset="1" stop-color="#b4d56f"/></linearGradient><linearGradient x1="64.28452" y1="76.09688" x2="75.33501" y2="74.57637" gradientUnits="userSpaceOnUse" id="color-4"><stop offset="0" stop-color="#81994e"/><stop offset="1" stop-color="#a9b68e"/></linearGradient><linearGradient x1="206.82422" y1="76.41343" x2="208.25537" y2="76.36699" gradientUnits="userSpaceOnUse" id="color-5"><stop offset="0" stop-color="#798d4e"/><stop offset="1" stop-color="#839e49"/></linearGradient><linearGradient x1="76.38691" y1="43.71079" x2="73.8123" y2="40.85303" gradientUnits="userSpaceOnUse" id="color-6"><stop offset="0" stop-color="#020400"/><stop offset="1" stop-color="#31410f"/></linearGradient><linearGradient x1="170.79053" y1="106.1978" x2="136.26943" y2="52.3229" gradientUnits="userSpaceOnUse" id="color-7"><stop offset="0" stop-color="#0c1005"/><stop offset="1" stop-color="#333926"/></linearGradient><linearGradient x1="116.45215" y1="61.46689" x2="112.20337" y2="67.24907" gradientUnits="userSpaceOnUse" id="color-8"><stop offset="0" stop-color="#182105"/><stop offset="1" stop-color="#30410c"/></linearGradient><linearGradient x1="151.72119" y1="77.62339" x2="143.72871" y2="60.36899" gradientUnits="userSpaceOnUse" id="color-9"><stop offset="0" stop-color="#979f87"/><stop offset="1" stop-color="#cecfcb"/></linearGradient><linearGradient x1="236.8916" y1="78.18618" x2="151.41504" y2="48.80273" gradientUnits="userSpaceOnUse" id="color-10"><stop offset="0" stop-color="#798f4d"/><stop offset="1" stop-color="#9fb07d"/></linearGradient></defs><g clip-path="url(#clip-1)" fill="none" fill-rule="nonzero" stroke="none" stroke-width="1" stroke-linecap="butt" stroke-linejoin="miter" stroke-miterlimit="10" stroke-dasharray="" stroke-dashoffset="0" font-family="none" font-weight="none" font-size="none" text-anchor="none" style="mix-blend-mode: normal"><path d="M0,0h300v150h-300z" fill="none"/><path d="M170.20605,27.96914c19.11768,-0.05273 37.90283,-0.29312 57.06592,-0.09463c0.57275,4.06948 1.45166,7.26665 4.89697,9.92695c2.41406,1.86328 5.35693,2.30361 8.30273,2.85132c0.06445,1.34648 0.20068,3.11558 0.1875,4.43188c-2.71729,1.78389 -3.67676,3.76216 0.01318,5.19346c0.01172,0.79673 0.04248,1.66523 0.02197,2.45566c-0.96387,0.38086 -1.79736,0.69873 -2.23242,1.74097c-0.2168,0.50771 -0.2168,1.08179 0,1.58979c0.39111,0.9479 1.1748,1.36978 2.07568,1.73042c0.04688,0.0186 0.09375,0.03633 0.14209,0.05332l0.03223,2.47661c-3.44238,1.39336 -2.9458,3.74766 0.0249,5.36807c0.02344,0.80054 0.06592,1.64824 0.03223,2.44468c-3.36475,1.5479 -3.27979,3.79951 0.05713,5.3335c0,0.80347 0.02197,1.75913 -0.02197,2.54751c-3.0791,1.53926 -3.26367,3.91567 0.04834,5.29995c0.05859,0.91699 0.11426,1.65688 0.07617,2.57769c-3.2124,1.6125 -3.13184,3.84917 0.01465,5.46885l0.03076,2.40073c-3.24463,1.5126 -3.39551,4.09556 -0.00586,5.54355l0.0293,2.56685c-3.39697,1.17202 -3.52588,4.19502 -0.05713,5.28882c0.00732,1.49209 0.04688,3.12891 0.01758,4.60898c-4.01367,0.43008 -7.46191,1.58174 -10.11035,4.85068c-0.8042,1.00342 -1.44141,2.13076 -1.88379,3.33823c-0.54785,1.47129 -0.71338,4.06025 -1.58496,4.72676c-16.71533,1.01646 -33.66504,-0.29751 -50.34668,-0.08613l-47.01577,0.30483l-13.39922,0.00718c-1.33564,0.00161 -5.28208,0.09946 -6.51445,-0.03164c-1.72837,0.05186 -3.46567,0.06636 -5.19492,0.06445c-10.02891,-0.01025 -20.11494,0.11367 -30.13521,-0.21606c-1.32554,0.14312 -4.49268,-0.08145 -5.85645,-0.18193c-0.31421,-2.08755 -0.73901,-4.148 -1.6998,-6.04658c-0.36167,-0.7147 -0.97134,-1.34282 -1.34678,-2.07891c-1.21729,-1.23765 -1.91631,-1.73833 -3.346,-2.74072c-3.31904,-1.29082 -2.67349,-1.56812 -6.7229,-1.96465c-0.17461,-1.32803 -0.09771,-3.22603 -0.07266,-4.60166c0.23218,-0.07456 0.4623,-0.15513 0.69009,-0.24185c2.86304,-1.10596 2.25527,-3.99097 -0.64687,-5.09019c-0.03516,-0.87041 0.00176,-1.66641 0.03457,-2.53447c0.17139,-0.06431 0.34028,-0.13462 0.50669,-0.21079c2.93555,-1.35161 2.64756,-4.1644 -0.48472,-5.28076l0.02007,-2.42915l0.1396,-0.05317c1.47642,-0.56807 3.01377,-1.7748 2.27813,-3.60835c-0.43579,-1.08647 -1.32349,-1.39072 -2.33716,-1.80264l0.04365,-2.52187c0.21152,-0.07705 0.42056,-0.16069 0.62695,-0.25063c0.81182,-0.35903 1.46865,-0.94834 1.77891,-1.79678c0.20273,-0.54946 0.17139,-1.15796 -0.08672,-1.68369c-0.50625,-1.03623 -1.30635,-1.29009 -2.29849,-1.64062c-0.03823,-0.78486 0.00483,-1.673 0.02417,-2.46592c3.41147,-1.11709 3.56675,-4.16616 0.05845,-5.35781l0.0438,-2.58647c3.30381,-1.14946 3.3813,-4.26094 0.0082,-5.14087c-0.02402,-1.06392 -0.50186,-2.40146 0.69067,-2.65591c2.66953,-1.63682 2.33643,-3.98013 -0.59136,-5.02236c-0.0939,-1.07534 -0.09727,-1.36831 0.02563,-2.44263c3.20508,-1.51919 3.49175,-3.72715 0.01743,-5.11055c-0.00791,-1.49092 0.07896,-3.05039 0.13989,-4.54541c4.77363,-0.32944 8.98975,-2.06895 11.40234,-6.37998c1.24351,-2.22173 1.47363,-3.80684 1.83457,-6.26689c1.8895,-0.15059 3.85005,-0.05684 5.75259,-0.04468c3.18296,0.0208 6.36621,0.02549 9.54917,0.01392c12.75205,-0.13008 25.50498,-0.15557 38.25732,-0.07617l24.36709,-0.05376c6.93457,-0.07954 15.73096,-0.2417 22.6333,0.13169z" fill="url(#color-1)"/><path d="M72.10664,41.20225c2.33877,-2.12109 8.49287,-1.64019 11.46563,-1.61938l10.05732,-0.0082l31.2832,-0.03706c8.22319,0.20933 16.69438,-0.14868 24.9334,0.06123c2.94434,0.075 6.70605,-0.18354 9.53174,-0.0271c-1.01953,0.08262 -4.28906,0.121 -4.92187,0.56689l0.04248,0.12129c0.33105,-0.01934 0.95361,-0.10254 1.22168,0.02842c-1.18506,0.30103 -4.6333,-0.07456 -6.36475,0.15996c1.46777,0.14736 3.63281,0.09243 5.14746,0.09551c3.45703,0.00278 6.91406,-0.01699 10.37109,-0.05947l28.45752,0.08892c1.5249,0.00396 10.771,-0.06196 11.8374,0.18618l0.18604,0.29106l0.36914,-0.13857c0.0791,0.12202 0.19336,0.28579 0.25635,0.41074c0.38086,-0.20303 0.18457,-0.43901 0.87158,-0.69141c2.37451,0.19277 4.95117,-0.11294 7.31689,0.00615c2.86963,0.14458 9.39551,-0.76582 10.97461,2.37832c0.41895,0.70811 0.92139,1.69453 1.61133,2.12241l0.21387,-0.03882c0.91699,1.87881 0.55518,11.55161 0.55518,14.22349l0.09668,17.53301l0.15527,19.16074c0.00879,4.17979 0.94336,8.64185 -2.35107,11.67305l0.09229,0.11323c0.42041,-0.07573 0.71777,-0.43638 1.05176,-0.74429l0.07764,0.15586c-0.53613,1.03081 -0.71484,0.02725 -0.89941,1.3957l-0.70898,0.42114c-1.3916,1.13672 -3.51123,1.39131 -5.25586,1.35967c-5.54443,0.29443 -11.35693,-0.32827 -17.09766,0.05918c-1.69629,-0.19409 -6.27979,-0.02007 -8.3291,-0.04028l-23.63379,-0.01597l-65.46929,-0.10166c-7.9749,0.04087 -15.9498,0.04102 -23.92471,0.00073c-2.77793,-0.26616 -7.48682,0.66929 -9.51812,-1.55801c-0.06387,-0.06636 -0.05625,-0.07295 -0.13535,-0.1002c-2.98813,-1.02876 -2.75317,-3.65859 -3.73682,-4.8939c-0.8918,-1.57192 0.18062,-33.4752 -0.09082,-38.24897c0.52397,-3.87217 -0.42437,-17.63672 0.78003,-20.70557c0.39961,-0.22119 0.59019,-0.53936 0.8061,-0.92666c0.72817,-1.30723 1.47935,-1.82373 2.67393,-2.65737z" fill="url(#color-2)"/><path d="M79.44316,41.16709c3.52163,-0.04189 7.04355,-0.04805 10.56533,-0.01846c0.2209,1.6248 0.10562,4.49473 0.08833,6.21328l-0.15923,11.80488l-0.44487,46.06113c0.10781,1.02041 -0.196,3.0085 -0.08218,3.6375l0.25459,0.08599c-0.479,0.39858 -6.56235,0.14282 -7.74434,0.22222l-1.31616,-0.01289c-3.0999,0.24507 -5.08608,0.60586 -8.01812,-0.58711l-0.10239,0.05918c1.07695,0.86045 2.33906,0.74487 2.76226,1.0333c-0.70796,0.20039 -2.63936,-0.63369 -3.43682,-0.9312c-0.06387,-0.06636 -0.05625,-0.07295 -0.13535,-0.1002c-2.98813,-1.02876 -2.75317,-3.65859 -3.73682,-4.8939c-0.8918,-1.57192 0.18062,-33.4752 -0.09082,-38.24897c0.52397,-3.87217 -0.42437,-17.63672 0.78003,-20.70557c0.39961,-0.22119 0.59019,-0.53936 0.8061,-0.92666c0.72817,-1.30723 1.47935,-1.82373 2.67393,-2.65737c-0.29868,0.48662 -0.27026,0.77959 -0.29604,1.35044c-0.42466,0.49731 -0.86323,0.98291 -1.21567,1.53354l0.43125,0.15981c0.17593,-0.20933 0.51328,-0.53247 0.71572,-0.73989c1.46455,-2.3168 5.29424,-2.34229 7.70127,-2.33906z" fill="url(#color-3)"/><path d="M68.62661,44.78628c0.39961,-0.22119 0.59019,-0.53936 0.8061,-0.92666c0.72817,-1.30723 1.47935,-1.82373 2.67393,-2.65737c-0.29868,0.48662 -0.27026,0.77959 -0.29604,1.35044c-0.42466,0.49731 -0.86323,0.98291 -1.21567,1.53354l0.43125,0.15981c-0.40371,0.76099 -1.03901,1.88936 -1.12104,2.7189c-0.21958,2.22129 -0.0665,4.59185 -0.12407,6.82705c-0.13843,7.36216 -0.19644,14.72563 -0.17388,22.08911l-0.03457,2.33599c-0.21724,1.33169 -0.15483,5.97935 -0.16421,7.56196l-0.08101,16.07769c0.28726,2.8771 1.02949,2.91431 1.73877,4.70933c-0.24126,1.49048 2.94302,2.21367 4.05688,2.40278c1.81772,0.30864 3.69741,0.02725 5.48159,0.19189c-3.0999,0.24507 -5.08608,0.60586 -8.01812,-0.58711l-0.10239,0.05918c1.07695,0.86045 2.33906,0.74487 2.76226,1.0333c-0.70796,0.20039 -2.63936,-0.63369 -3.43682,-0.9312c-0.06387,-0.06636 -0.05625,-0.07295 -0.13535,-0.1002c-2.98813,-1.02876 -2.75317,-3.65859 -3.73682,-4.8939c-0.8918,-1.57192 0.18062,-33.4752 -0.09082,-38.24897c0.52397,-3.87217 -0.42437,-17.63672 0.78003,-20.70557z" fill="url(#color-4)"/><path d="M70.59492,44.08623l0.43125,0.15981c-0.40371,0.76099 -1.03901,1.88936 -1.12104,2.7189c-0.21958,2.22129 -0.0665,4.59185 -0.12407,6.82705c-0.13843,7.36216 -0.19644,14.72563 -0.17388,22.08911l-0.03457,2.33599c-0.21724,1.33169 -0.15483,5.97935 -0.16421,7.56196l-0.08101,16.07769l-0.0728,0.15703c-0.23569,-0.67368 -0.09858,-6.56294 -0.09302,-7.57002c0.01787,-8.58267 0.1144,-17.16489 0.2896,-25.7458l0.12158,-14.76738c0.03662,-3.10063 -0.37266,-7.07651 1.02217,-9.84434z" fill="#627340"/><path d="M69.57261,78.21709c0.13315,2.07349 0.10928,4.15869 0.14136,6.22192c0.01479,0.94966 -0.17637,4.67446 0.03618,5.3833c0.10181,-0.75249 0.13418,-5.66689 0.22544,-5.74072c0.42715,2.1501 -0.03267,6.11484 0.07441,8.58721c0.10254,2.36836 -0.00308,4.97769 0.20215,7.40801c0.06475,0.76758 -0.3731,3.26587 -0.19995,3.70137c0.55195,1.38823 1.97183,2.82744 3.01538,3.85913c3.37778,0.80977 7.87383,0.86514 11.36909,0.78794c1.39321,-0.03091 3.08745,0.53174 4.46089,-0.01523c0.76538,-0.78208 0.33062,-2.52349 0.59517,-3.18208c0.10781,1.02041 -0.196,3.0085 -0.08218,3.6375l0.25459,0.08599c-0.479,0.39858 -6.56235,0.14282 -7.74434,0.22222l-1.31616,-0.01289c-1.78418,-0.16465 -3.66387,0.11675 -5.48159,-0.19189c-1.11387,-0.18911 -4.29814,-0.9123 -4.05688,-2.40278c-0.70928,-1.79502 -1.45151,-1.83223 -1.73877,-4.70933l0.08101,-16.07769c0.00938,-1.58262 -0.05303,-6.23027 0.16421,-7.56196z" fill="#89a450"/><path d="M71.06616,106.56606c1.71182,1.75122 3.96431,2.32573 6.33882,2.2998c3.99609,-0.0438 8.01563,0.03105 12.00557,-0.00044l0.25459,0.08599c-0.479,0.39858 -6.56235,0.14282 -7.74434,0.22222l-1.31616,-0.01289c-1.78418,-0.16465 -3.66387,0.11675 -5.48159,-0.19189c-1.11387,-0.18911 -4.29814,-0.9123 -4.05688,-2.40278z" fill="#c7d5aa"/><path d="M71.02617,44.24604c0.17593,-0.20933 0.51328,-0.53247 0.71572,-0.73989c-0.02607,1.09775 -1.09893,2.39326 -1.09204,3.68086c0.04512,8.35752 0.29604,16.71724 -0.66387,25.03506c-0.14224,1.23252 0.28652,2.4999 -0.37881,3.65903c-0.02256,-7.36348 0.03545,-14.72695 0.17388,-22.08911c0.05757,-2.23521 -0.09551,-4.60576 0.12407,-6.82705c0.08203,-0.82954 0.71733,-1.95791 1.12104,-2.7189z" fill="#a1ba6e"/><path d="M72.53818,81.29575c-0.05801,-0.41294 -0.17285,-0.77446 -0.2502,-1.14976c-1.14829,-5.53901 7.44009,-4.54438 10.71328,-4.21245c1.3103,0.13286 2.35225,1.23267 2.95986,2.28823c0.05537,0.81606 0.00015,1.60547 -0.03853,2.42168l0.14136,0.06064c0.01025,0.71704 -0.35479,1.45283 -0.70503,2.06484c-2.33335,1.65996 -12.94951,2.21426 -12.82075,-1.47319z" fill="#d9e5bf"/><path d="M85.92261,80.64346l0.14136,0.06064c0.01025,0.71704 -0.35479,1.45283 -0.70503,2.06484c-2.33335,1.65996 -12.94951,2.21426 -12.82075,-1.47319c1.64194,2.21455 4.63887,2.09004 7.12485,2.01108c2.32339,-0.07383 5.36426,-0.0999 6.25957,-2.66338z" fill="#1f2c05"/><path d="M73.69702,80.43091c-0.09287,-1.83413 0.34775,-3.06694 2.59102,-3.04746c2.31123,0.02007 5.67612,-0.45264 7.76191,0.57114c0.45996,0.22573 0.55884,1.21128 0.58477,1.66758c-0.02505,0.97354 -0.72832,1.33491 -1.47246,1.85347c-1.7395,0.26338 -3.73477,0.14414 -5.50576,0.18794c-1.47363,0.03633 -2.93188,-0.03413 -3.95947,-1.23267z" fill="#92b744"/><path d="M73.69702,80.43091c-0.09287,-1.83413 0.34775,-3.06694 2.59102,-3.04746c2.31123,0.02007 5.67612,-0.45264 7.76191,0.57114c0.45996,0.22573 0.55884,1.21128 0.58477,1.66758c-0.20889,-0.09946 -0.77124,-1.32861 -1.40127,-1.38955c-2.56816,-0.24829 -5.729,-0.47344 -8.23125,0.1998c-0.71821,0.22544 -1.03315,1.19062 -1.19707,1.673c-0.03677,0.10825 -0.0728,0.21665 -0.10811,0.32549z" fill="#1f2c05"/><path d="M78.36929,71.69722c-3.16758,-5.87051 4.89009,-7.85112 7.3248,-3.6958c0.38364,0.65464 0.35522,1.75562 0.32432,2.53052c0.12803,0.6145 0.01304,1.25479 -0.32095,1.78623c-1.44258,2.27461 -5.62969,1.59609 -7.85669,1.62759c-1.38794,0.01963 -5.26831,-0.34409 -5.16812,-2.33599c-0.00146,-0.46113 -0.41748,-1.32656 -0.34014,-2.33643c0.09536,-1.24453 0.45703,-1.70317 1.38706,-2.56406c0.54771,-0.28872 0.81416,-0.5458 1.36655,-0.51035c0.2231,0.28242 0.22104,0.29971 0.2937,0.66006c-0.02915,0.23159 -0.08174,0.50522 -0.05405,0.72759c0.27349,0.79702 -0.92168,1.98208 -1.51948,2.53359l-0.09946,0.0189c0.32783,1.77407 3.2811,1.57939 4.66245,1.55815z" fill="#d9e5bf"/><path d="M86.01841,70.53193c0.12803,0.6145 0.01304,1.25479 -0.32095,1.78623c-1.44258,2.27461 -5.62969,1.59609 -7.85669,1.62759c-1.38794,0.01963 -5.26831,-0.34409 -5.16812,-2.33599c2.24033,2.04814 4.19165,1.73335 7.05234,1.74111c2.51104,0.00688 5.27109,-0.07734 6.29341,-2.81895z" fill="#1f2c05"/><path d="M75.32578,67.58657c0.27349,0.79702 -0.92168,1.98208 -1.51948,2.53359l-0.09946,0.0189c-0.06226,-1.52798 0.32695,-1.89902 1.61895,-2.55249z" fill="#4f681c"/><path d="M73.71958,66.70928c0.54771,-0.28872 0.81416,-0.5458 1.36655,-0.51035c0.2231,0.28242 0.22104,0.29971 0.2937,0.66006c-0.32725,0.10547 -0.94424,0.61597 -1.34604,0.85444l-0.20874,-0.15557z" fill="#e4f6be"/><path d="M79.14727,70.17935c-0.64673,-4.04136 5.48467,-3.70723 5.54136,-0.45029c-0.51416,2.48467 -4.60913,2.81792 -5.54136,0.45029z" fill="#92b744"/><path d="M79.14727,70.17935c-0.64673,-4.04136 5.48467,-3.70723 5.54136,-0.45029c-1.0418,-1.50117 -2.59834,-1.88042 -4.3147,-1.18916c-0.88711,0.35728 -0.92842,0.79307 -1.22666,1.63945z" fill="#33440f"/><path d="M78.60923,52.28672c-2.94653,-5.45596 4.78022,-7.71929 7.19766,-3.62534c0.5061,0.85708 0.33545,1.66099 0.34922,2.62661c0.91245,5.02251 -13.4376,3.92578 -13.26753,0.85181c-0.43696,-1.25771 -0.70825,-2.12813 -0.17344,-3.43477c0.40547,-0.99097 1.60767,-2.1917 2.74863,-1.65938c0.19028,0.47212 0.10957,0.38965 -0.04468,0.98701l0.35537,0.31626c-0.12173,0.81753 -1.2731,1.14229 -1.90063,2.50811c1.32144,1.80264 2.67275,1.46924 4.7354,1.42969z" fill="#d9e5bf"/><path d="M86.1561,51.28799c0.91245,5.02251 -13.4376,3.92578 -13.26753,0.85181c0.427,0.20684 1.31089,1.23853 1.87427,1.33608c3.22354,0.55884 9.88843,1.53779 11.39326,-2.18789z" fill="#1f2c05"/><path d="M75.41909,48.03267l0.35537,0.31626c-0.12173,0.81753 -1.2731,1.14229 -1.90063,2.50811c-0.1481,-1.60371 0.32285,-1.97256 1.54526,-2.82437z" fill="#4f681c"/><path d="M79.28306,50.65078c-0.28286,-3.49321 5.46372,-3.36167 5.57593,-0.2502c-0.2313,2.46445 -4.9708,2.81719 -5.57593,0.2502z" fill="#b9d975"/><path d="M79.28306,50.65078c-0.28286,-3.49321 5.46372,-3.36167 5.57593,-0.2502c-1.29448,-2.49639 -4.58496,-2.12036 -5.43604,0.21621z" fill="#33440f"/><path d="M72.71206,61.60913c-0.5269,-2.79888 -0.46348,-4.13467 2.48071,-5.29673c0.25474,0.38481 0.2001,0.95566 0.20698,1.44302c0.3835,1.01353 -1.08384,1.6481 -1.51758,2.88823c0.93735,1.84497 4.79546,1.94824 5.88706,0.02798c-0.64907,-0.33296 -1.48462,-1.93945 -1.38999,-2.61079c-0.23745,-0.48574 -0.18428,-0.27173 -0.13257,-0.87407c0.59502,-0.67134 6.43784,-0.32695 7.63271,-0.3542c-0.01816,1.04312 -0.09976,5.35532 0.04878,6.13301l-1.13232,0.08511l-0.20376,-0.23804c-0.17153,-1.3938 -0.02168,-3.00073 0.09858,-4.39863c-0.10254,0.30747 -0.12612,0.60762 -0.40254,0.68437c-1.01704,0.28242 -2.24531,0.06753 -3.30952,0.14443l0.24023,0.64937c0.03794,0.79937 0.1021,1.41563 -0.21855,2.17998c-1.36055,3.24302 -7.36245,2.95093 -8.41011,-0.40708z" fill="#d9e5bf"/><path d="M81.21885,59.89219c0.03794,0.79937 0.1021,1.41563 -0.21855,2.17998c-1.36055,3.24302 -7.36245,2.95093 -8.41011,-0.40708l0.12188,-0.05596c2.47837,2.94346 8.03701,2.89028 8.50679,-1.71694z" fill="#33440f"/><path d="M80.97861,59.24282c-0.09097,-0.3252 -0.08657,-0.34907 -0.07002,-0.69009c0.65552,-0.47256 2.88135,-0.19907 3.78208,-0.13872c-0.10254,0.30747 -0.12612,0.60762 -0.40254,0.68437c-1.01704,0.28242 -2.24531,0.06753 -3.30952,0.14443z" fill="#4f681c"/><path d="M75.39976,57.75542c0.3835,1.01353 -1.08384,1.6481 -1.51758,2.88823c-0.27188,-1.63242 0.18003,-2.0603 1.51758,-2.88823z" fill="#4f681c"/><path d="M79.76924,60.67163c-0.64907,-0.33296 -1.48462,-1.93945 -1.38999,-2.61079c1.18521,0.84302 1.49443,1.08193 1.38999,2.61079z" fill="#92b744"/><path d="M84.10269,88.7603c-0.25122,-0.86338 -0.73359,-1.72983 -0.16978,-2.49492c1.25786,0.11924 2.33394,2.98755 2.38213,4.12295c0.09961,0.50054 0.13652,0.33677 -0.03911,0.71587c-0.51182,0.28169 -1.49663,0.15806 -2.10981,0.127c-2.27681,0.02798 -8.13721,-0.13535 -10.00708,0.21973c-0.75513,1.05381 0.25942,1.9522 -1.00723,2.29219c-0.46069,-0.1103 -0.50596,-0.15908 -0.84155,-0.49834l-0.07822,-0.52456c-0.02769,-1.32363 0.00645,-2.50825 0.05493,-3.82588c2.72812,0.01245 9.33018,0.19761 11.81572,-0.13403z" fill="#c7d3af"/><path d="M86.31504,90.38833c0.09961,0.50054 0.13652,0.33677 -0.03911,0.71587c-0.51182,0.28169 -1.49663,0.15806 -2.10981,0.127c-2.27681,0.02798 -8.13721,-0.13535 -10.00708,0.21973c-0.75513,1.05381 0.25942,1.9522 -1.00723,2.29219c-0.46069,-0.1103 -0.50596,-0.15908 -0.84155,-0.49834l-0.07822,-0.52456c0.75586,0.08555 0.76597,0.21006 1.34326,-0.07427c0.29136,-0.49014 0.12378,-1.52578 0.08057,-2.146l8.45859,0.0561c1.40156,-0.0123 2.80254,-0.06826 4.20059,-0.16772z" fill="#1f2c05"/><path d="M86.31504,90.38833c0.09961,0.50054 0.13652,0.33677 -0.03911,0.71587c-0.51182,0.28169 -1.49663,0.15806 -2.10981,0.127c-1.41108,-0.42275 -6.70195,0.10151 -8.25776,-0.27144c1.14976,-0.62227 4.54482,-0.02607 6.2061,-0.40371c1.40156,-0.0123 2.80254,-0.06826 4.20059,-0.16772z" fill="#060901"/><path d="M72.42246,100.76016c-0.68511,-2.33862 -0.81768,-3.57056 1.63286,-5.20767c0.45835,-0.3063 0.90776,-0.31245 1.43437,-0.15073c0.04717,0.45747 0.09155,0.69771 0.1897,1.13921c0.35391,0.71895 -0.41323,2.33965 -0.92432,2.83433l-0.28564,-0.03809l-0.38086,-0.50449c-0.16348,0.31523 -0.29736,0.61904 -0.44136,0.94233c1.34268,1.70376 3.48003,1.8627 5.36514,0.95244c0.55562,-0.52266 0.58608,-0.55825 0.82852,-1.29434l0.03955,-0.10913c0.3605,-0.82749 0.36431,-0.94907 1.25698,-1.02437c0.10723,0.81841 0.00483,1.52813 -0.07251,2.34624l0.1396,0.12305c-0.69595,4.13423 -8.40747,3.07661 -8.87417,0.11558z" fill="#c7d3af"/><path d="M81.06489,100.6459l0.1396,0.12305c-0.69595,4.13423 -8.40747,3.07661 -8.87417,0.11558l0.09214,-0.12437c1.23472,1.33828 1.91631,1.94707 3.82119,2.00229c1.52959,0.04438 4.01499,-0.48179 4.70347,-2.04141z" fill="#33440f"/><path d="M75.67939,96.54097c0.35391,0.71895 -0.41323,2.33965 -0.92432,2.83433l-0.28564,-0.03809l-0.38086,-0.50449c-0.16348,0.31523 -0.29736,0.61904 -0.44136,0.94233c-0.5228,-1.90972 0.51226,-2.53081 2.03218,-3.23408z" fill="#33440f"/><path d="M79.88042,99.32402c0.3605,-0.82749 0.36431,-0.94907 1.25698,-1.02437c0.10723,0.81841 0.00483,1.52813 -0.07251,2.34624l-0.11777,0.07515c-0.58916,0.08892 -1.13892,0.47183 -1.66626,0.77432c-0.02036,-0.21841 0.01201,-0.37295 0.04146,-0.58784l-0.30996,-0.18003c0.55562,-0.52266 0.58608,-0.55825 0.82852,-1.29434z" fill="#d9e5bf"/><path d="M78.32769,96.90073c0.04893,-0.63091 -0.04805,-0.7292 0.26997,-1.16235c1.05923,-0.1645 6.03604,-0.07295 7.26519,-0.02183c0.03428,1.35645 0.25356,4.80396 -0.17446,5.94023c-0.43418,0.23555 -0.23174,0.19775 -0.79263,0.08027c-0.60732,-0.59663 -0.46641,-2.96294 -0.25972,-3.75645c-0.54346,0.55532 -2.95034,0.59224 -3.49863,0.31904c-0.89268,0.07529 -0.89648,0.19688 -1.25698,1.02437l-0.03955,0.10913l-0.30762,-0.40869c-0.5688,-0.19658 -0.62856,-0.25283 -1.05762,-0.67939c-0.2395,-0.56997 -0.18794,-0.82031 -0.14795,-1.44434z" fill="#c7d3af"/><path d="M81.1374,98.29966c-0.1856,-0.45615 -0.28389,-0.47622 -0.18765,-0.89648c0.92183,-0.48281 2.45698,-0.24595 3.43271,0.02798c0.09712,0.0271 0.21035,0.43154 0.25356,0.54946c-0.54346,0.55532 -2.95034,0.59224 -3.49863,0.31904z" fill="#33440f"/><path d="M78.32769,96.90073c1.04531,0.70811 1.46895,1.12485 1.55273,2.42329l-0.03955,0.10913l-0.30762,-0.40869c-0.5688,-0.19658 -0.62856,-0.25283 -1.05762,-0.67939c-0.2395,-0.56997 -0.18794,-0.82031 -0.14795,-1.44434z" fill="#4f681c"/><path d="M85.92817,62.96558c0.16904,0.53628 0.17578,0.3353 0.06079,0.81841c-0.41968,0.24844 -0.23745,0.18281 -0.81885,0.15352c-0.4834,-0.30132 -0.37632,-0.1418 -0.51724,-0.58125l0.14297,-0.30557z" fill="#33440f"/><path d="M207.12305,41.175l2.57959,-0.01465l2.29541,0.04116c4.229,-0.03662 9.96533,-0.78398 13.14551,1.81421c0.41895,0.70811 0.92139,1.69453 1.61133,2.12241l0.21387,-0.03882c0.91699,1.87881 0.55518,11.55161 0.55518,14.22349l0.09668,17.53301l0.15527,19.16074c0.00879,4.17979 0.94336,8.64185 -2.35107,11.67305l0.09229,0.11323c0.42041,-0.07573 0.71777,-0.43638 1.05176,-0.74429l0.07764,0.15586c-0.53613,1.03081 -0.71484,0.02725 -0.89941,1.3957l-0.70898,0.42114c-1.10303,0.28652 -1.5498,0.45264 -2.67773,0.28667l0.30469,-0.0813c-4.46045,-0.37134 -10.49561,0.33354 -14.9707,-0.16099l0.15088,-0.23481l0.04248,-0.17051l-0.5332,-0.08965c0.06152,-5.06499 -0.08496,-9.71587 -0.09668,-14.70952l-0.10107,-47.33437c-0.07324,-1.69395 -0.03369,-3.64482 -0.03369,-5.36177z" fill="#81a830"/><path d="M219.31934,66.07061c2.10059,-0.32783 3.44385,0.21006 4.75635,1.86621c0.36035,1.17173 0.6709,2.39092 0.0498,3.54785c-0.17285,0.32666 -0.41309,0.61304 -0.70459,0.84053c-1.9541,1.6314 -9.43945,1.29097 -11.68213,0.04995c-0.41748,-0.95127 -1.4165,-1.75635 -1.11182,-2.94141c0.33105,-1.28613 1.28613,-3.63677 2.93701,-3.23394c0.29443,0.38452 0.21826,0.6646 0.26807,1.22227l0.23877,0.13022c0.14063,1.30488 -1.26709,1.86343 -1.65967,3.00293l-0.1084,0.0312c0.73828,1.40874 2.92236,1.1313 4.29639,1.11958c-1.32715,-2.64639 -0.60791,-5.65386 2.72021,-5.6354z" fill="#b9d975"/><path d="M219.31934,66.07061c2.10059,-0.32783 3.44385,0.21006 4.75635,1.86621c0.36035,1.17173 0.6709,2.39092 0.0498,3.54785c-0.17285,0.32666 -0.41309,0.61304 -0.70459,0.84053c0.51709,-1.46792 0.60059,-1.68823 -0.38379,-2.93276c-0.38525,3.02168 -4.19238,3.08818 -5.34229,1.23823c-0.51855,-0.9085 -0.4541,-1.49399 -0.00732,-2.38828c0.25928,-1.74727 1.37549,-1.55845 1.63184,-2.17178z" fill="#81a830"/><path d="M219.31934,66.07061c2.10059,-0.32783 3.44385,0.21006 4.75635,1.86621c0.36035,1.17173 0.6709,2.39092 0.0498,3.54785c-0.17285,0.32666 -0.41309,0.61304 -0.70459,0.84053c0.51709,-1.46792 0.60059,-1.68823 -0.38379,-2.93276c-0.12158,-0.35303 -0.23877,-0.56074 -0.40869,-0.88682c-1.4458,-1.28745 -3.2915,-1.04209 -4.94092,-0.26323c0.25928,-1.74727 1.37549,-1.55845 1.63184,-2.17178z" fill="#c7d3af"/><path d="M217.6875,68.24238c1.64941,-0.77886 3.49512,-1.02422 4.94092,0.26323l-0.104,0.00571c-2.45508,0.12144 -3.75293,-0.73872 -4.82959,2.11934c-0.51855,-0.9085 -0.4541,-1.49399 -0.00732,-2.38828z" fill="#33440f"/><path d="M213.83203,67.42207l0.23877,0.13022c0.14063,1.30488 -1.26709,1.86343 -1.65967,3.00293l-0.1084,0.0312c-0.64746,-1.77305 0.24609,-2.26289 1.5293,-3.16436z" fill="#33440f"/><path d="M212.14307,62.78013c-1.00781,-1.13276 -1.80469,-2.07554 -1.27002,-3.65874c0.36768,-1.08779 1.24219,-3.15249 2.70703,-2.71992c0.14795,0.36812 0.22266,0.61523 0.32813,0.98936c0.30176,0.3271 0.22559,0.1563 0.22559,0.69346c-0.10107,0.17988 -0.19482,0.35742 -0.30762,0.52925c-1.08691,1.01396 -1.22168,1.01147 -1.35937,2.49111c1.2334,1.06494 3.28125,1.42705 4.66553,0.43521c0.479,-0.34482 0.79834,-0.86689 0.8877,-1.44946c0.16553,-1.11724 -0.57422,-1.79443 -1.63037,-1.8999c0.02051,-0.49775 0.00879,-0.83906 0.17871,-1.3103c1.70947,-0.08467 5.8125,-0.24141 7.54688,0.15483c0.09375,0.02124 0.16553,0.39067 0.20947,0.53979c-0.17285,1.24526 -0.11865,3.43447 -0.13184,4.76777c0.00146,0.20815 0.01611,0.47476 -0.01318,0.67324c-0.30469,0.0186 -1.04297,0.0728 -1.20557,-0.20889c-0.5083,-0.8814 -0.24756,-2.53301 -0.19922,-3.51782c-0.91992,0.29048 -2.15039,-0.09917 -2.88428,0.21094c-0.51123,1.27441 0.92432,1.78887 -0.20947,3.49248c-1.2085,1.8186 -7.25391,1.65791 -7.53809,-0.2124z" fill="#b9d975"/><path d="M218.0083,63.1418c2.65869,-2.43208 0.646,-3.58652 1.37549,-4.63184c0.36475,-0.14297 2.89014,-0.05874 3.43066,-0.03794l-0.03955,0.81709c-0.91992,0.29048 -2.15039,-0.09917 -2.88428,0.21094c-0.51123,1.27441 0.92432,1.78887 -0.20947,3.49248c-1.2085,1.8186 -7.25391,1.65791 -7.53809,-0.2124c2.04785,1.3585 3.68262,0.96665 5.86523,0.36167z" fill="#33440f"/><path d="M222.81445,58.47202c0.42334,-0.08481 0.82178,-0.15571 1.2334,-0.28828c-0.00293,0.92886 -0.08057,3.37485 0.14502,4.15884c0.00146,0.20815 0.01611,0.47476 -0.01318,0.67324c-0.30469,0.0186 -1.04297,0.0728 -1.20557,-0.20889c-0.5083,-0.8814 -0.24756,-2.53301 -0.19922,-3.51782z" fill="#c7d3af"/><path d="M213.9082,57.39082c0.30176,0.3271 0.22559,0.1563 0.22559,0.69346c-0.10107,0.17988 -0.19482,0.35742 -0.30762,0.52925c-1.08691,1.01396 -1.22168,1.01147 -1.35937,2.49111c-0.87158,-2.07598 -0.10693,-2.4583 1.44141,-3.71382z" fill="#33440f"/><path d="M226.75488,45.13813l0.21387,-0.03882c0.91699,1.87881 0.55518,11.55161 0.55518,14.22349l0.09668,17.53301l0.15527,19.16074c0.00879,4.17979 0.94336,8.64185 -2.35107,11.67305l0.09229,0.11323c0.42041,-0.07573 0.71777,-0.43638 1.05176,-0.74429l0.07764,0.15586c-0.53613,1.03081 -0.71484,0.02725 -0.89941,1.3957l-0.70898,0.42114c-1.10303,0.28652 -1.5498,0.45264 -2.67773,0.28667l0.30469,-0.0813c-4.46045,-0.37134 -10.49561,0.33354 -14.9707,-0.16099l0.15088,-0.23481c2.02588,-0.04497 4.05176,-0.06738 6.07617,-0.06709c5.67627,-0.01597 12.70166,0.83115 12.84375,-7.07974l0.39258,0.51826l0.22119,-0.21782c-0.19775,-2.45801 -0.10986,-5.752 -0.11572,-8.29512l-0.07031,-14.40352c-0.02197,-2.04287 0.10693,-3.39902 -0.04834,-5.5166c-0.09814,-1.6251 -0.02197,-4.12866 -0.02197,-5.80825c-0.01611,-3.39302 -0.00732,-6.78618 0.02783,-10.17905c0.09082,-1.36685 0,-3.60088 -0.00293,-5.02544c-0.00146,-2.146 0.07178,-4.66084 -0.19043,-6.75645c-0.06592,-0.17153 -0.15674,-0.6665 -0.20215,-0.87187z" fill="#a8b888"/><path d="M207.15674,46.53677c0.19043,0.96299 0.17871,1.21333 0.12744,2.16797l0.11572,0.04878c0.10107,-0.15483 0.22998,-0.37251 0.3457,-0.50713c-0.2666,4.78022 0.33105,9.6605 0.27393,14.81675c-0.15967,14.72432 0.11572,29.7791 -0.12891,44.47236c-0.00879,0.55884 0.14648,0.4103 -0.00293,1.13481l-0.5332,-0.08965c0.06152,-5.06499 -0.08496,-9.71587 -0.09668,-14.70952z" fill="url(#color-5)"/><path d="M224.32471,57.5748c2.63818,1.2936 0.89063,2.60859 1.93799,3.84917l0.14648,-0.37192c0.02637,1.19839 -0.11133,3.02681 0.38818,4.09775l0.14941,-0.11353c0.01465,-0.65933 0.15088,-1.11519 0.11426,-1.75239c-0.10107,-1.80337 -0.07324,-3.69023 0.08936,-5.49199c-0.03516,3.39287 -0.04395,6.78604 -0.02783,10.17905c0,1.67959 -0.07617,4.18315 0.02197,5.80825c-0.24756,-1.6938 0.29297,-3.7708 -0.33691,-6.12568l-0.10254,0.01128c-0.29883,1.66157 -0.15234,5.14922 -0.14941,6.98057c-0.20361,-0.78413 -0.71924,-1.43013 -1.2583,-2.00156c-0.84668,1.40449 -2.01562,1.69248 -3.46729,2.26465c-0.54053,-0.11748 -2.41846,-0.53203 -2.86084,-0.53862c-2.26758,-0.03369 -4.16162,0.08467 -6.25928,-1.00283c-0.49512,-0.25664 -0.80566,-0.47563 -0.97119,-0.99185c2.24268,1.24102 9.72803,1.58145 11.68213,-0.04995c0.2915,-0.22749 0.53174,-0.51387 0.70459,-0.84053c0.62109,-1.15693 0.31055,-2.37612 -0.0498,-3.54785c0.38086,0.3627 0.49219,0.36621 1.00049,0.49189c0.45264,0.11177 0.26221,0.42012 0.56982,1.05366c0.15088,-0.24346 0.23584,-1.12119 0.3252,-1.49854c0.65186,-2.77969 0.85693,-4.19224 -2.45654,-3.9917c0.44385,-0.08276 0.77197,-0.09653 1.07373,-0.43755l-0.05713,-0.28521l-0.35889,-0.14971l0.00732,-0.10386c0.0293,-0.19849 0.01465,-0.46509 0.01318,-0.67324c0.01318,-1.3333 -0.04102,-3.52251 0.13184,-4.76777z" fill="#4f681c"/><path d="M211.99805,41.20151c4.229,-0.03662 9.96533,-0.78398 13.14551,1.81421c0.41895,0.70811 0.92139,1.69453 1.61133,2.12241c0.04541,0.20537 0.13623,0.70034 0.20215,0.87187l-0.31934,-0.30117l-0.22705,0.01904c-0.26953,0.66841 0.17139,1.82168 0.00879,2.78892l-0.14941,0.00659c-0.32666,-0.43213 -0.38525,-2.38301 -0.65625,-3.22808c-1.11182,-3.4708 -6.83936,-3.82339 -9.92285,-3.97339c-0.72217,-0.03516 -3.21533,0.11836 -3.69287,-0.12041z" fill="#89a450"/><path d="M207.12305,41.175l2.57959,-0.01465c-0.93018,0.56704 -1.7417,0.646 -1.90576,1.47759c-0.31201,1.57427 0.14941,4.16499 -0.05127,5.60845c-0.11572,0.13462 -0.24463,0.35229 -0.3457,0.50713l-0.11572,-0.04878c0.05127,-0.95464 0.06299,-1.20498 -0.12744,-2.16797c-0.07324,-1.69395 -0.03369,-3.64482 -0.03369,-5.36177z" fill="#81994e"/><path d="M224.17236,63.11968l0.35889,0.14971l0.05713,0.28521c-0.30176,0.34102 -0.62988,0.35479 -1.07373,0.43755c-0.26514,-0.26396 -0.28857,-0.30469 -0.42627,-0.65332c0.3208,-0.27671 0.56982,-0.19102 1.08398,-0.21914z" fill="#33440f"/><path d="M211.83252,82.26709c-0.28271,-0.81021 -1.13232,-1.48198 -1.14258,-2.63496c-0.0249,-4.82183 4.95264,-3.7686 8.13135,-3.80713c3.63867,-0.04424 5.61328,0.49966 5.7627,4.54365l0.20068,-0.63999l0.11572,0.05581c0.04541,0.72642 0.04688,1.22432 0.01904,1.95249l-0.82031,1.23193c-0.68555,0.37383 -1.47949,0.78574 -2.25586,0.83613c-1.94531,0.12598 -9.43506,0.82661 -10.01074,-1.53794z" fill="#b9d975"/><path d="M224.58398,80.36865l0.20068,-0.63999l0.11572,0.05581c0.04541,0.72642 0.04688,1.22432 0.01904,1.95249l-0.82031,1.23193c-0.68555,0.37383 -1.47949,0.78574 -2.25586,0.83613c-1.94531,0.12598 -9.43506,0.82661 -10.01074,-1.53794c2.7583,1.79282 8.53711,1.25859 11.54297,0.12056c0.67383,-0.67925 0.87012,-1.13452 1.2085,-2.01899z" fill="#33440f"/><path d="M213.7207,77.41172c2.05078,0.07808 4.06494,-0.00732 6.10693,0.02725c1.31836,0.02227 2.07861,0.03296 2.98535,0.98086c0.40283,1.49546 -0.01758,2.93394 -1.65381,3.10063c-1.98047,0.20156 -7.12793,0.64219 -8.55469,-0.77285c-0.86133,-1.59111 -0.23437,-2.43267 1.11621,-3.33589z" fill="#81a830"/><path d="M213.7207,77.41172c2.05078,0.07808 4.06494,-0.00732 6.10693,0.02725c1.31836,0.02227 2.07861,0.03296 2.98535,0.98086c-1.05029,0.04248 -1.75342,-0.13784 -2.77002,-0.21738c-2.00684,-0.15718 -4.38867,-0.20171 -6.34277,0.33369c-0.94629,0.90103 -0.97559,0.92065 -1.0957,2.21147c-0.86133,-1.59111 -0.23437,-2.43267 1.11621,-3.33589z" fill="#33440f"/><path d="M215.88428,50.29746c0.68848,-3.70986 4.34912,-4.63506 7.35059,-2.4939c0.95068,0.67793 1.16309,1.95176 1.22021,3.07324c0.07471,-0.37046 0.04102,-0.60029 0.28418,-0.76641c0.68994,1.20249 0.15527,2.70542 -0.8877,3.59136c-1.9585,1.66421 -10.4209,1.51289 -11.9458,-0.53306l-0.0498,-0.24536c-0.18311,-0.23877 -0.36328,-0.48047 -0.5376,-0.7248c-2.146,-2.72549 0.94629,-5.95532 2.4668,-5.13896c0.14795,0.45908 0.07471,0.58359 -0.07764,1.02495l0.35156,-0.04878c0.43945,0.87334 -1.90576,2.71011 -0.18896,4.1272l0.07324,0.13711c0.97998,0.08071 1.54541,0.10269 2.52832,0.06753c-0.25781,-0.64131 -0.41895,-1.39307 -0.5874,-2.07012z" fill="#b9d975"/><path d="M211.31836,52.19854c-2.146,-2.72549 0.94629,-5.95532 2.4668,-5.13896c0.14795,0.45908 0.07471,0.58359 -0.07764,1.02495l0.35156,-0.04878c0.43945,0.87334 -1.90576,2.71011 -0.18896,4.1272l0.07324,0.13711c-0.9082,0.22588 -1.87939,-0.81489 -2.38623,-1.41431l-0.3252,0.08643l-0.01172,-0.08247c-0.14648,0.29883 0.03809,0.88813 0.09814,1.30884z" fill="#d9e5bf"/><path d="M213.70752,48.08452l0.35156,-0.04878c0.43945,0.87334 -1.90576,2.71011 -0.18896,4.1272c-2.65283,-1.01602 -2.20166,-2.6874 -0.1626,-4.07842z" fill="#4f681c"/><path d="M224.45508,50.87681c0.07471,-0.37046 0.04102,-0.60029 0.28418,-0.76641c0.68994,1.20249 0.15527,2.70542 -0.8877,3.59136c-1.9585,1.66421 -10.4209,1.51289 -11.9458,-0.53306l-0.0498,-0.24536c2.03906,1.64063 5.4917,0.95347 8.01563,1.05161c2.21631,0.08628 3.94189,-0.91304 4.5835,-3.09814z" fill="#33440f"/><path d="M217.77979,51.404c-1.60693,-2.9354 2.41553,-3.66577 4.55566,-2.43853l0.2168,0.10869c0.74854,1.1814 0.5083,2.36382 -0.71777,3.08071c-1.46045,0.41938 -3.00146,0.51343 -4.05469,-0.75088z" fill="#81a830"/><path d="M217.77979,51.404c-1.60693,-2.9354 2.41553,-3.66577 4.55566,-2.43853c-0.91992,0.68584 -3.65186,-0.75806 -4.47656,2.26934c-0.02344,0.08599 -0.02637,0.07588 -0.0791,0.16919z" fill="#33440f"/><path d="M222.55225,49.07417c0.74854,1.1814 0.5083,2.36382 -0.71777,3.08071c0.19043,-1.03096 0.3501,-2.10366 0.71777,-3.08071z" fill="#92b744"/><path d="M211.48535,96.37734c0.80127,-0.51636 1.52344,-1.13335 2.45508,-1.06245c0.48633,0.26587 0.34277,0.1998 0.57861,0.85576l0.25635,0.05127c0.5625,1.13628 -1.64941,2.80459 -2.09326,3.90044c0.11572,0.12437 0.2417,0.23921 0.375,0.34336c1.97168,1.5542 6.94775,0.74736 5.24854,-2.498c-0.1084,-0.20801 -1.02979,-0.80215 -1.29492,-1.00547c-0.07031,-0.47607 -0.12598,-0.65127 0.0542,-1.11226c0.84961,-0.15923 7.0708,-0.16216 7.57764,0.13374l0.0791,0.41089c1.42822,0.46582 0.86279,5.44424 0.35156,6.32856c-0.65479,0.15659 -1.33887,-0.14751 -1.62305,-0.76743c0.3208,-0.22881 0.3208,-0.15015 0.7793,-0.13052l-0.62549,-0.17344c-0.61377,-0.71924 -0.33984,-2.68301 -0.26953,-3.65962l-0.14209,0.03779c-1.08545,0.28491 -2.09326,0.06533 -2.68506,0.76787c-0.20361,1.11021 0.56104,1.5709 0.02197,2.76021c-1.4751,3.25928 -6.6665,2.4731 -8.69385,0.2959l0.03076,-0.29795c-1.38867,-1.98516 -1.39746,-3.07192 -0.38086,-5.17866z" fill="#b9d975"/><path d="M219.646,97.3771c0.97266,0.03853 2.57813,-0.1333 3.49805,0.16494c0.08936,0.02886 0.14795,0.31758 0.19043,0.45015l-0.14209,0.03779c-1.08545,0.28491 -2.09326,0.06533 -2.68506,0.76787c-0.20361,1.11021 0.56104,1.5709 0.02197,2.76021c-1.4751,3.25928 -6.6665,2.4731 -8.69385,0.2959l0.03076,-0.29795c3.09229,2.61167 9.68994,1.60034 7.77979,-4.17891z" fill="#33440f"/><path d="M224.72168,96.39463c1.42822,0.46582 0.86279,5.44424 0.35156,6.32856c-0.65479,0.15659 -1.33887,-0.14751 -1.62305,-0.76743c0.3208,-0.22881 0.3208,-0.15015 0.7793,-0.13052l0.38379,-0.30469c0.37939,-1.0355 0.13477,-3.89019 0.1084,-5.12593z" fill="#4f681c"/><path d="M214.51904,96.17065l0.25635,0.05127c0.5625,1.13628 -1.64941,2.80459 -2.09326,3.90044c-1.31836,-2.58091 1.04736,-2.76108 1.83691,-3.95171z" fill="#33440f"/><path d="M222.81006,88.88789c-0.39111,-0.69331 -0.9917,-1.84058 -0.68408,-2.61372l0.2959,-0.07983c1.34912,0.47607 2.45654,2.92646 2.75244,4.24585l0.19775,-0.0627c0.15674,0.60176 0.17139,0.37178 0.01318,0.9123c-0.29443,0.12627 -0.27832,0.13403 -0.58594,0.06533c-2.01123,0.11924 -11.08887,-0.31494 -11.86816,0.53906c-0.09814,0.50991 -0.1084,0.64336 -0.10107,1.1584c-0.11865,-0.12202 -0.31348,-0.37749 -0.4292,-0.52061l-0.11865,0.54272c-0.43652,-0.01157 -0.67676,0.02271 -1.05762,-0.18662c-0.59033,-0.84141 -0.31787,-2.82905 -0.30029,-3.98291c3.9624,0.03853 7.92334,0.03267 11.88574,-0.01729z" fill="#b9d975"/><path d="M225.17432,90.44019l0.19775,-0.0627c0.15674,0.60176 0.17139,0.37178 0.01318,0.9123c-0.29443,0.12627 -0.27832,0.13403 -0.58594,0.06533c-2.01123,0.11924 -11.08887,-0.31494 -11.86816,0.53906c-0.09814,0.50991 -0.1084,0.64336 -0.10107,1.1584c-0.11865,-0.12202 -0.31348,-0.37749 -0.4292,-0.52061l-0.01172,-1.90356c1.30225,0.00059 2.60596,0.01187 3.9082,0.03354c2.39648,-0.01553 6.57715,0.13286 8.87695,-0.22178z" fill="#33440f"/><path d="M225.17432,90.44019l0.19775,-0.0627c0.15674,0.60176 0.17139,0.37178 0.01318,0.9123c-0.29443,0.12627 -0.27832,0.13403 -0.58594,0.06533c-0.94482,-0.32534 -6.12012,-0.02124 -7.84717,-0.18501c0.16846,-0.02446 0.20654,-0.05083 0.36768,-0.1103c-0.17578,-0.23862 -0.6665,-0.29766 -1.02246,-0.39785c2.39648,-0.01553 6.57715,0.13286 8.87695,-0.22178z" fill="#1f2c05"/><path d="M212.40088,92.53198c0.11572,0.14312 0.31055,0.39858 0.4292,0.52061l0.02344,0.40928c-0.46729,0.5127 -1.08691,0.46816 -1.5835,0.02856l0.07178,-0.2124c0.39258,-0.1771 0.51855,-0.17197 0.94043,-0.20332z" fill="#4f681c"/><path d="M206.85205,40.63125c2.37451,0.19277 4.95117,-0.11294 7.31689,0.00615c2.86963,0.14458 9.39551,-0.76582 10.97461,2.37832c-3.18018,-2.59819 -8.9165,-1.85083 -13.14551,-1.81421l-2.29541,-0.04116l-2.57959,0.01465c0,1.71694 -0.03955,3.66782 0.03369,5.36177l0.10107,47.33437c0.01172,4.99365 0.1582,9.64453 0.09668,14.70952l0.5332,0.08965l-0.04248,0.17051l-0.15088,0.23481c4.4751,0.49453 10.51025,-0.21035 14.9707,0.16099l-0.30469,0.0813c1.12793,0.16597 1.57471,-0.00015 2.67773,-0.28667c-1.3916,1.13672 -3.51123,1.39131 -5.25586,1.35967c-5.54443,0.29443 -11.35693,-0.32827 -17.09766,0.05918c-1.69629,-0.19409 -6.27979,-0.02007 -8.3291,-0.04028l-23.63379,-0.01597l-65.46929,-0.10166c-7.9749,0.04087 -15.9498,0.04102 -23.92471,0.00073c-2.77793,-0.26616 -7.48682,0.66929 -9.51812,-1.55801c0.79746,0.29751 2.72886,1.13159 3.43682,0.9312c-0.42319,-0.28843 -1.6853,-0.17285 -2.76226,-1.0333l0.10239,-0.05918c2.93203,1.19297 4.91821,0.83218 8.01812,0.58711l1.31616,0.01289c0.37661,0.20874 6.98438,0.29077 7.50776,0.15483c2.37495,-0.61685 7.16294,0.57979 9.39595,-0.05332l100.41914,-0.0583c0.8877,-0.00894 6.20801,-0.01201 6.60791,-0.29004c-0.35889,-0.58345 -0.33838,-0.45132 -0.34131,-1.11299c-0.00586,-1.25728 0.01025,-2.50781 0.03076,-3.76509c0.00293,-2.30039 -0.24463,-4.35117 -0.20801,-6.68862l-0.11865,0.12158c-0.3457,0.91655 0.33398,2.26919 -0.24902,2.94771c-0.16992,-0.94761 0.05713,-4.20278 0.01465,-5.42212c-0.04687,-1.29727 -0.17139,-2.5585 -0.23437,-3.84448c-0.01025,-6.01626 -0.00146,-11.91636 0.09961,-17.93423c0.09229,-5.54209 -0.38672,-11.26787 -0.17432,-16.85186c0.03076,-0.25972 0.46289,-2.45391 0.49658,-2.49565l-0.05859,-0.254c0.22559,0.66519 0.03223,1.28042 0.24023,1.68472c0.09961,-0.78604 0.04541,-3.75 0.04395,-4.67271l-0.03809,-9.58857l0.36914,-0.13857c0.0791,0.12202 0.19336,0.28579 0.25635,0.41074c0.38086,-0.20303 0.18457,-0.43901 0.87158,-0.69141z" fill="#7e9157"/><path d="M204.6709,56.37671c0.03076,-0.25972 0.46289,-2.45391 0.49658,-2.49565l-0.05859,-0.254c0.22559,0.66519 0.03223,1.28042 0.24023,1.68472l0.20508,29.46577c0.03369,5.24048 -0.01758,10.40127 0.11572,15.64292c-0.14502,1.23984 0.0498,2.47588 -0.12891,3.62827c0.00293,-2.30039 -0.24463,-4.35117 -0.20801,-6.68862l-0.11865,0.12158c-0.3457,0.91655 0.33398,2.26919 -0.24902,2.94771c-0.16992,-0.94761 0.05713,-4.20278 0.01465,-5.42212c-0.04687,-1.29727 -0.17139,-2.5585 -0.23437,-3.84448c-0.01025,-6.01626 -0.00146,-11.91636 0.09961,-17.93423c0.09229,-5.54209 -0.38672,-11.26787 -0.17432,-16.85186z" fill="#89a450"/><path d="M206.85205,40.63125c2.37451,0.19277 4.95117,-0.11294 7.31689,0.00615c2.86963,0.14458 9.39551,-0.76582 10.97461,2.37832c-3.18018,-2.59819 -8.9165,-1.85083 -13.14551,-1.81421l-2.29541,-0.04116l-2.57959,0.01465c0,1.71694 -0.03955,3.66782 0.03369,5.36177l0.10107,47.33437c0.01172,4.99365 0.1582,9.64453 0.09668,14.70952l-0.12451,0.09946c-0.19043,-1.36289 -0.10107,-6.14004 -0.10547,-7.85039l-0.12305,-13.21465z" fill="#2e3b13"/><path d="M205.35498,41.05049l0.36914,-0.13857c0.0791,0.12202 0.19336,0.28579 0.25635,0.41074c-0.48779,0.72466 -0.19189,14.12695 -0.18896,16.0875l0.00879,31.44272c-0.00146,1.63477 0.08936,10.58145 -0.13037,11.56758c-0.1333,-5.24165 -0.08203,-10.40244 -0.11572,-15.64292l-0.20508,-29.46577c0.09961,-0.78604 0.04541,-3.75 0.04395,-4.67271z" fill="#a8b888"/><path d="M90.31699,41.04888c0.36709,1.67373 -0.22456,8.34756 0.23701,9.08906c-0.01567,-1.19956 -0.12524,-9.11045 0.22178,-9.50405c1.19062,0.848 -0.03237,8.70396 0.60293,9.57671c0.04819,-3.03984 0.06123,-6.21401 0.15967,-9.23789l0.35947,0.16582l0.82412,0.02007c-0.08774,0.54082 -0.09199,0.7834 -0.09492,1.3311c-0.25869,2.7293 -0.20596,5.62749 -0.20435,8.37407l-0.0356,8.46328c0.00278,1.92729 0.1314,4.30854 -0.08657,6.20435c0.04761,4.88599 0.18442,9.75278 0.00029,14.63057c-0.04687,1.23999 -0.00278,4.38164 -0.1626,5.47251c0.35332,2.06396 0.33325,4.36377 0.2335,6.46245c-0.30352,2.49448 -0.16333,12.5814 -0.9145,14.07378c0.01787,0.64468 0.16494,2.18481 -0.19189,2.65181c0.80815,0.9189 6.38467,-0.04146 7.55918,0.45264c-2.23301,0.63311 -7.021,-0.56353 -9.39595,0.05332c-0.52339,0.13594 -7.13115,0.05391 -7.50776,-0.15483c1.18198,-0.07939 7.26533,0.17637 7.74434,-0.22222l-0.25459,-0.08599c-0.11382,-0.629 0.18999,-2.61709 0.08218,-3.6375l0.44487,-46.06113l0.15923,-11.80488c0.01729,-1.71855 0.13257,-4.58848 -0.08833,-6.21328z" fill="#90a26b"/><path d="M91.53838,40.97271l0.35947,0.16582l0.82412,0.02007c-0.08774,0.54082 -0.09199,0.7834 -0.09492,1.3311c-0.25869,2.7293 -0.20596,5.62749 -0.20435,8.37407l-0.0356,8.46328c0.00278,1.92729 0.1314,4.30854 -0.08657,6.20435c0.04761,4.88599 0.18442,9.75278 0.00029,14.63057c-0.04687,1.23999 -0.00278,4.38164 -0.1626,5.47251c0.35332,2.06396 0.33325,4.36377 0.2335,6.46245c-0.30352,2.49448 -0.16333,12.5814 -0.9145,14.07378c0.01787,0.64468 0.16494,2.18481 -0.19189,2.65181c-0.45132,-0.92959 0.32168,-51.87861 0.11338,-58.61191c0.04819,-3.03984 0.06123,-6.21401 0.15967,-9.23789z" fill="#627340"/><path d="M91.89785,41.13853l0.82412,0.02007c-0.08774,0.54082 -0.09199,0.7834 -0.09492,1.3311c-0.25869,2.7293 -0.20596,5.62749 -0.20435,8.37407l-0.0356,8.46328c0.00278,1.92729 0.1314,4.30854 -0.08657,6.20435c-0.29355,0.55005 -0.18281,1.32319 -0.38232,2.08667c-0.01025,-1.86636 -0.17051,-3.71631 -0.25488,-5.58369c-0.18428,-2.55571 0.00278,-7.22915 0.03032,-9.81958c0.03311,-3.09873 -0.15791,-8.16855 0.2042,-11.07627z" fill="#bccc9a"/><path d="M91.53735,85.88408l0.01421,-15.26733c-0.00103,-2.64346 -0.08027,-5.98389 0.11177,-8.58237c0.08438,1.86738 0.24463,3.71733 0.25488,5.58369c0.19951,-0.76348 0.08877,-1.53662 0.38232,-2.08667c0.04761,4.88599 0.18442,9.75278 0.00029,14.63057c-0.04687,1.23999 -0.00278,4.38164 -0.1626,5.47251c-0.0832,-0.0041 -0.20874,-0.06738 -0.29648,-0.10269l-0.07617,-0.73696c-0.04233,0.36943 -0.14077,0.72715 -0.22822,1.08926z" fill="#a1ba6e"/><path d="M91.53735,85.88408c0.08745,-0.36211 0.18589,-0.71982 0.22822,-1.08926l0.07617,0.73696c0.08774,0.0353 0.21328,0.09858 0.29648,0.10269c0.35332,2.06396 0.33325,4.36377 0.2335,6.46245c-0.30352,2.49448 -0.16333,12.5814 -0.9145,14.07378c-0.19043,-2.3896 -0.00059,-6.8502 -0.01099,-9.41865c-0.01348,-3.27187 -0.13608,-7.71943 0.09111,-10.86797z" fill="#89a450"/><path d="M204.74561,91.16279c0.06299,1.28599 0.1875,2.54722 0.23438,3.84448c0.04248,1.21934 -0.18457,4.47451 -0.01465,5.42212c0.58301,-0.67852 -0.09668,-2.03115 0.24902,-2.94771l0.11865,-0.12158c-0.03662,2.33745 0.21094,4.38823 0.20801,6.68862c-0.02051,1.25728 -0.03662,2.50781 -0.03076,3.76509c0.00293,0.66167 -0.01758,0.52954 0.34131,1.11299c-0.3999,0.27803 -5.72021,0.2811 -6.60791,0.29004l-100.41914,0.0583c-1.17451,-0.49409 -6.75103,0.46626 -7.55918,-0.45264c0.35684,-0.46699 0.20977,-2.00713 0.19189,-2.65181c0.75117,-1.49238 0.61099,-11.5793 0.9145,-14.07378c0.00322,4.66758 -0.121,9.30879 -0.24053,13.96582c-0.10854,4.22578 3.99199,1.52725 6.54478,2.25967c2.74922,0.78896 5.16079,-0.18164 7.9415,0.17388c2.95269,0.37764 6.20552,-0.22471 9.20874,-0.1043l-0.71895,0.04644c0.68555,0.17139 1.10889,0.16509 1.80425,0.18501c-0.19834,-0.06724 -0.36621,-0.15015 -0.55518,-0.23804l-0.00557,-0.02461c1.62891,-0.58755 3.86191,0.36885 5.54048,0.29678c1.26167,-0.0542 2.43677,-0.25518 3.72744,-0.28623c3.78765,-0.06313 7.57588,-0.07178 11.36382,-0.02593c2.27842,0.01157 3.76816,0.40972 5.79595,0.44971c2.81265,0.14751 6.12583,-0.56895 8.87681,-0.45469c7.82666,0.32476 15.64453,-0.02666 23.47705,0.12158c2.77441,0.05244 4.28613,-0.5105 7.15723,-0.11411l-0.20801,0.01113c0.91406,0.38569 17.1709,-0.06563 17.58252,-0.33809c0.72217,0.12759 3.96094,0.5688 4.36377,0.26001c0.88623,-0.68145 0.68408,-4.22241 0.72217,-5.28472c0.13916,-3.88477 -0.25635,-7.97461 -0.00439,-11.83345z" fill="#bccc9a"/><path d="M72.10664,41.20225c2.33877,-2.12109 8.49287,-1.64019 11.46563,-1.61938l10.05732,-0.0082l31.2832,-0.03706c8.22319,0.20933 16.69438,-0.14868 24.9334,0.06123c2.94434,0.075 6.70605,-0.18354 9.53174,-0.0271c-1.01953,0.08262 -4.28906,0.121 -4.92187,0.56689l0.04248,0.12129c0.33105,-0.01934 0.95361,-0.10254 1.22168,0.02842c-1.18506,0.30103 -4.6333,-0.07456 -6.36475,0.15996c-7.55654,0.0939 -15.01802,-0.00044 -22.56826,-0.00762l-28.26665,0.0791c-1.69219,0.00425 -4.86665,0.03179 -6.68115,-0.04687c-0.07529,0.06094 -0.15059,0.12187 -0.22588,0.18296l-0.07515,0.31685c-0.09844,3.02388 -0.11147,6.19805 -0.15967,9.23789c-0.6353,-0.87275 0.5877,-8.72871 -0.60293,-9.57671c-0.34702,0.3936 -0.23745,8.30449 -0.22178,9.50405c-0.46157,-0.7415 0.13008,-7.41533 -0.23701,-9.08906l-0.3085,0.09976c-3.52178,-0.02959 -7.0437,-0.02344 -10.56533,0.01846c-2.40703,-0.00322 -6.23672,0.02227 -7.70127,2.33906c-0.20244,0.20742 -0.53979,0.53057 -0.71572,0.73989l-0.43125,-0.15981c0.35244,-0.55063 0.79102,-1.03623 1.21567,-1.53354c0.02578,-0.57085 -0.00264,-0.86382 0.29604,-1.35044z" fill="#a8b888"/><path d="M79.89624,40.57588c1.26738,-0.04219 9.79307,-0.26221 10.31455,0.13506l0.1062,0.33794l-0.3085,0.09976c-3.52178,-0.02959 -7.0437,-0.02344 -10.56533,0.01846z" fill="#060901"/><path d="M71.8106,42.55269c2.5147,-2.37539 4.86885,-2.06763 8.08564,-1.97681l-0.45308,0.59121c-2.40703,-0.00322 -6.23672,0.02227 -7.70127,2.33906c-0.20244,0.20742 -0.53979,0.53057 -0.71572,0.73989l-0.43125,-0.15981c0.35244,-0.55063 0.79102,-1.03623 1.21567,-1.53354z" fill="url(#color-6)"/><path d="M91.53838,40.97271l0.07515,-0.31685c0.07529,-0.06108 0.15059,-0.12202 0.22588,-0.18296c1.8145,0.07866 4.98896,0.05112 6.68115,0.04688l28.26665,-0.0791c7.55024,0.00718 15.01172,0.10151 22.56826,0.00762c1.46777,0.14736 3.63281,0.09243 5.14746,0.09551c3.45703,0.00278 6.91406,-0.01699 10.37109,-0.05947l28.45752,0.08892c1.5249,0.00396 10.771,-0.06196 11.8374,0.18618l0.18604,0.29106c-0.4541,0.09038 -5.6001,0.10942 -6.40869,0.11733c-7.55273,0.00762 -15.104,-0.02563 -22.65674,-0.09976l-83.56758,0.09053l-0.82412,-0.02007z" fill="#0a0f00"/><path d="M92.72197,41.15859l83.56758,-0.09053c7.55273,0.07412 15.104,0.10737 22.65674,0.09976c0.80859,-0.00791 5.95459,-0.02695 6.40869,-0.11733l0.03809,9.58857c0.00146,0.92271 0.05566,3.88667 -0.04395,4.67271c-0.20801,-0.4043 -0.01465,-1.01953 -0.24023,-1.68472l0.05859,0.254c-0.03369,0.04175 -0.46582,2.23594 -0.49658,2.49565c0.21387,-3.62446 -0.09668,-7.47612 0.04395,-11.12212c0.03809,-0.99287 -0.05859,-2.30698 -0.53613,-3.18076c-0.54199,-0.4856 -4.60107,-0.19951 -5.79639,-0.27744c0.94043,-0.10664 6.16846,-0.17241 6.4248,-0.36108c-1.31836,-0.16802 -5.79932,-0.05142 -7.42383,-0.05171l-15.19482,-0.00937c0.375,0.23247 4.78711,0.20215 5.60303,0.22075c-0.77197,0.37192 -5.73193,0.22134 -6.71924,0.06401c-0.04102,-0.23833 -0.04102,-0.22163 -0.18457,-0.41807c-2.57373,-0.23672 -3.42334,0.50317 -6.12744,0.44019c0.58594,-0.2064 1.75635,0.13257 2.32031,-0.29136l-24.48047,-0.00747l-7.87354,-0.00981c-1.25127,-0.00439 -2.95884,-0.10137 -4.16016,0.04395c0.33047,0.1582 0.81401,-0.0104 1.13232,0.06021c1.88496,0.41865 3.47358,-0.01538 5.3833,0.01348l0.16846,0.34878l-0.01318,-0.34204l0.15674,0.00923l0.14209,0.28491c0.21973,-0.04673 0.15527,-0.03193 0.35596,-0.14502c-2.51089,0.31187 -4.38618,0.02798 -6.79028,0.04556c-3.15542,0.023 -5.60903,0.32856 -8.82129,-0.11484l0.69302,-0.0731c-2.47339,-0.59517 -12.12686,-0.14473 -14.96909,-0.12744l0.05435,0.08232c3.07661,0.01685 6.49849,0.11558 9.59634,0.17725c-0.87993,0.20024 -2.79053,-0.1793 -3.46128,0.15396c-0.15952,-0.08145 -20.25645,-0.06899 -22.53237,-0.19102l1.00591,-0.10181c-1.41152,-0.18721 -8.92822,-0.37061 -9.7188,0.04526c-0.28257,0.33882 -0.27158,0.52031 -0.32153,0.94761c0.00293,-0.54771 0.00718,-0.79028 0.09492,-1.3311z" fill="#a1ba6e"/><path d="M107.37905,49.09673c2.16328,-0.51987 6.72261,0.02183 9.1355,-0.05332c1.87632,-0.05859 4.3541,-0.13711 6.2209,-0.08467c6.03428,0.16963 12.03721,-0.0375 18.06914,0.03691c1.32817,0.01626 3.42993,-0.10093 4.63008,0.12671c2.12637,2.03335 9.62051,18.55269 11.26113,19.14375c0.95654,-0.94146 8.43018,-13.41562 9.03809,-14.90654l-0.15381,-0.29194c0.0293,-0.73008 1.72705,-3.21387 2.22803,-4.14565c3.28271,0.41733 9.09521,-0.39126 12.17432,0.29355c0.4541,-0.00791 0.87305,-0.11426 1.13086,0.22749c0.46875,0.61904 0.56396,1.33447 0.57715,2.06719c0.04248,2.33584 -0.01318,4.702 -0.01611,7.03872l-0.09229,17.95723l0.05566,12.23511c0.00293,0.98716 0.09668,4.56006 -0.00293,5.37627c0.06152,1.66392 0.08496,4.03154 0.40576,5.61709c0.07617,0.94673 0.14795,1.95293 0.25488,2.89365c-4.22168,-0.10342 -8.59863,0.1585 -12.84375,-0.11265c-0.5376,-0.6022 -1.06787,-1.34531 -1.38281,-2.09458c-0.14502,-0.47139 -0.16406,-0.94512 -0.20654,-1.43701l-0.00586,-10.49927c-0.25928,-1.79795 -0.06445,-5.64067 -0.24316,-7.98662c-2.02295,1.50791 -3.21826,4.15298 -4.44287,6.34849c-2.37012,4.25068 -5.33496,8.06938 -7.66992,12.31816c-0.33984,0.13755 -0.19482,0.11836 -0.59473,0c-0.47168,-0.40415 -0.67236,-1.0314 -0.91699,-1.6106c0.22705,-2.61299 2.77295,-9.63472 3.67969,-12.59282c0.23438,-1.75239 1.99805,-4.17744 -0.67969,-5.01299c-4.29932,-1.3415 -8.7876,-2.3146 -13.20542,-3.1749c-1.53867,-0.29971 -5.95972,-1.7562 -7.35674,-1.21802c-1.4811,1.78506 -0.83716,5.32939 -0.93516,7.51714c-0.26792,5.9833 0.31494,12.00088 0.12627,17.97979c-0.05156,1.62876 -0.89692,3.07119 -2.6061,3.01875c-1.11123,-0.03398 -5.27358,0.2499 -6.14077,-0.10737l-0.02212,-0.19409c0.56675,-0.69741 2.30156,-0.68936 3.121,-0.59399l0.10576,0.10063c-0.14019,0.03647 -0.59106,0.13623 -0.67778,0.20698c1.10815,0.13052 3.55693,0.52368 4.49268,-0.11689l0.08979,-0.27144c-0.93955,-0.56338 -9.71807,0.27803 -11.83667,-0.3999l-0.20112,0.20229c0.04819,0.55166 -0.02432,0.33618 0.31992,0.81562c0.56001,0.22749 0.67163,0.18252 1.22769,-0.13887l0.35552,0.173l0.01948,0.16978c-1.74521,0.24888 -2.15068,0.16377 -2.68242,-1.60093c-0.04761,-0.25005 -0.74546,-1.71855 -0.90352,-2.08521c-0.27012,-0.93999 -0.15527,-7.41299 -0.15396,-8.68081l0.06489,-21.19951c-0.00352,-0.97134 -0.02168,-1.89756 0.07017,-2.86611l-0.07852,-2.24473c-3.39243,-0.09404 -8.20488,0.51152 -11.53242,0.05083c-0.49702,-0.06885 -0.93765,-1.09204 -1.16528,-1.57764c-0.10269,-0.32754 -0.15337,-1.07109 -0.1897,-1.44302c0.08218,-4.38442 0.03413,-8.78423 0.08481,-13.17305z" fill="url(#color-7)"/><path d="M107.37905,49.09673c2.16328,-0.51987 6.72261,0.02183 9.1355,-0.05332c1.87632,-0.05859 4.3541,-0.13711 6.2209,-0.08467c6.03428,0.16963 12.03721,-0.0375 18.06914,0.03691c1.32817,0.01626 3.42993,-0.10093 4.63008,0.12671l0.05552,0.39785c0.20303,0.3873 0.22295,0.43711 0.18428,0.87085l-0.05332,0.06709l-0.02285,-0.08452c-0.09829,0.64863 -0.10928,0.78999 -0.46641,1.32993l-0.18091,0.10767l-0.16172,-0.29956c-1.44067,0.77593 -2.93936,1.57896 -4.36392,2.37671c-2.34404,1.31279 -3.67485,2.67437 -6.43989,3.01772c-2.29219,1.90547 -4.31924,2.00596 -7.02642,2.92632c-1.9002,0.646 -3.78823,1.61558 -5.72607,2.16987c-0.5748,0.16582 -1.83457,0.03501 -2.9376,0.2439c0.54316,0.02329 1.85449,-0.04014 2.20942,0.1853l0.05537,0.23628l-0.09932,1.53765c0.02036,0.87363 0.15586,2.52275 -0.20068,3.27891l-0.07852,-2.24473c-3.39243,-0.09404 -8.20488,0.51152 -11.53242,0.05083c-0.49702,-0.06885 -0.93765,-1.09204 -1.16528,-1.57764c-0.10269,-0.32754 -0.15337,-1.07109 -0.1897,-1.44302c0.08218,-4.38442 0.03413,-8.78423 0.08481,-13.17305z" fill="#5c6052"/><path d="M109.62773,62.23828c2.77998,0.0022 5.91211,-0.05977 8.66763,0.00791c0.54316,0.02329 1.85449,-0.04014 2.20942,0.1853l0.05537,0.23628l-0.09932,1.53765c0.02036,0.87363 0.15586,2.52275 -0.20068,3.27891l-0.07852,-2.24473c-3.39243,-0.09404 -8.20488,0.51152 -11.53242,0.05083c-0.49702,-0.06885 -0.93765,-1.09204 -1.16528,-1.57764c-0.10269,-0.32754 -0.15337,-1.07109 -0.1897,-1.44302c0.73271,0.04277 1.59082,-0.00762 2.3335,-0.03149z" fill="url(#color-8)"/><path d="M109.62773,62.23828c2.77998,0.0022 5.91211,-0.05977 8.66763,0.00791c0.54316,0.02329 1.85449,-0.04014 2.20942,0.1853l0.05537,0.23628l-0.09932,1.53765c-2.69253,-1.07271 -10.37813,-0.01743 -12.9769,-0.49263c-0.10269,-0.32754 -0.15337,-1.07109 -0.1897,-1.44302c0.73271,0.04277 1.59082,-0.00762 2.3335,-0.03149z" fill="#060901"/><path d="M107.37905,49.09673c2.16328,-0.51987 6.72261,0.02183 9.1355,-0.05332c1.87632,-0.05859 4.3541,-0.13711 6.2209,-0.08467c6.03428,0.16963 12.03721,-0.0375 18.06914,0.03691c1.32817,0.01626 3.42993,-0.10093 4.63008,0.12671l0.05552,0.39785c-2.62222,-0.11001 -5.95503,0.01157 -8.64185,0.00352l-20.36895,-0.0646c-3.18691,-0.01992 -5.56084,0.13784 -8.81279,-0.09082z" fill="#a1ba6e"/><path d="M145.49019,49.52021c0.20303,0.3873 0.22295,0.43711 0.18428,0.87085l-0.05332,0.06709l-0.02285,-0.08452c-0.09829,0.64863 -0.10928,0.78999 -0.46641,1.32993l-0.18091,0.10767l-0.16172,-0.29956c-1.44067,0.77593 -2.93936,1.57896 -4.36392,2.37671c-2.34404,1.31279 -3.67485,2.67437 -6.43989,3.01772c-1.45415,0.12173 -4.38896,1.91294 -5.25483,1.66274c0.2458,-0.29634 3.31597,-1.31221 3.84316,-1.49297c3.04819,-1.04546 5.85571,-2.83667 8.82964,-4.06626c1.62393,-0.67148 3.04731,-2.97905 4.08677,-3.4894z" fill="#393c32"/><path d="M107.37905,49.09673l0.28755,0.27158c-0.02139,4.2416 -0.01963,8.4832 0.00513,12.72466c0.88755,-0.05435 1.09116,-0.05039 1.95601,0.14531c-0.74268,0.02388 -1.60078,0.07427 -2.3335,0.03149c0.08218,-4.38442 0.03413,-8.78423 0.08481,-13.17305z" fill="#1f2c05"/><path d="M135.96709,73.89185c2.64814,-0.03296 7.46602,1.29639 10.14302,1.83047c3.30542,0.65933 6.69653,1.35747 9.97778,2.13135c1.08398,0.25562 2.71875,1.24761 3.33545,1.26357c-0.0293,0.15996 -0.18896,0.98467 -0.18604,1.09497c0.43799,-0.35947 0.28418,-0.59722 0.47168,-1.32173l-0.09668,0.23057l0.20361,-0.28022c0.1377,1.34121 -1.64209,5.51851 -1.99072,7.27925c-0.23291,-0.3019 -0.16113,-0.74443 -0.15674,-1.15869c0.23438,-1.75239 1.99805,-4.17744 -0.67969,-5.01299c-4.29932,-1.3415 -8.7876,-2.3146 -13.20542,-3.1749c-1.53867,-0.29971 -5.95972,-1.7562 -7.35674,-1.21802c-1.4811,1.78506 -0.83716,5.32939 -0.93516,7.51714c-0.26792,5.9833 0.31494,12.00088 0.12627,17.97979c-0.05156,1.62876 -0.89692,3.07119 -2.6061,3.01875c-1.11123,-0.03398 -5.27358,0.2499 -6.14077,-0.10737l-0.02212,-0.19409c0.56675,-0.69741 2.30156,-0.68936 3.121,-0.59399l0.10576,0.10063c-0.14019,0.03647 -0.59106,0.13623 -0.67778,0.20698c1.10815,0.13052 3.55693,0.52368 4.49268,-0.11689l0.08979,-0.27144c-0.93955,-0.56338 -9.71807,0.27803 -11.83667,-0.3999l-0.20112,0.20229c0.04819,0.55166 -0.02432,0.33618 0.31992,0.81562c0.56001,0.22749 0.67163,0.18252 1.22769,-0.13887l0.35552,0.173l0.01948,0.16978c-1.74521,0.24888 -2.15068,0.16377 -2.68242,-1.60093c-0.04761,-0.25005 -0.74546,-1.71855 -0.90352,-2.08521c0.7248,0.23994 13.19604,0.22837 13.83223,-0.01318c-0.22134,-2.51909 -0.03867,-6.40122 -0.00703,-9.02461l0.09771,-14.54414c0.26265,-1.26606 0.37456,-1.84233 1.52417,-2.6042c0.07939,-0.05229 0.15967,-0.10327 0.24097,-0.15278z" fill="#81a830"/><path d="M134.11128,100.21758c0.10386,0.85195 0.06914,1.46777 0.04292,2.31958c-1.87969,0.02036 -11.86187,0.23174 -12.97163,-0.22119c-0.04761,-0.25005 -0.74546,-1.71855 -0.90352,-2.08521c0.7248,0.23994 13.19604,0.22837 13.83223,-0.01318z" fill="#33440f"/><path d="M165.87158,78.73843c0.31055,-0.21006 1.43701,-2.21309 1.72119,-2.65503l0.26953,-0.03721c0.14941,0.37339 0.14209,0.51592 0.17578,0.90806c0.69287,2.46196 0.28857,7.0812 -0.09082,9.66108c-0.08643,0.5814 -0.00879,1.30562 -0.09082,1.86943c-0.25928,-1.79795 -0.06445,-5.64067 -0.24316,-7.98662c-2.02295,1.50791 -3.21826,4.15298 -4.44287,6.34849c-2.37012,4.25068 -5.33496,8.06938 -7.66992,12.31816c-0.33984,0.13755 -0.19482,0.11836 -0.59473,0c-0.47168,-0.40415 -0.67236,-1.0314 -0.91699,-1.6106c0.22705,-2.61299 2.77295,-9.63472 3.67969,-12.59282c-0.00439,0.41426 -0.07617,0.85679 0.15674,1.15869c0.07178,1.80923 -4.64355,11.06016 -3.09814,12.28564c1.0415,-0.22881 1.02832,-0.90527 1.21436,-1.7272c0.11133,-0.49365 0.77197,-0.85884 0.63721,-1.5186c-0.47021,0.3186 -1.20996,1.76177 -1.72412,2.40571l-0.19043,-0.08247c0.35742,-1.47349 4.78271,-7.50059 5.63232,-9.41191c0.66797,-1.50103 2.83301,-3.8978 3.64453,-5.804l-0.13184,-0.04907c-0.55664,0.81475 -1.01514,1.49165 -1.64209,2.25469c0.33838,-0.82573 3.06738,-5.52495 3.70459,-5.73442z" fill="#33440f"/><path d="M165.87158,78.73843c0.31055,-0.21006 1.43701,-2.21309 1.72119,-2.65503l0.26953,-0.03721c0.14941,0.37339 0.14209,0.51592 0.17578,0.90806c-0.01172,0.57363 0.0498,1.66421 -0.22266,2.09634l-0.30029,-0.23218c-1.06641,0.61479 -0.95215,0.71104 -2.2793,1.3084c0.06152,-0.46318 0.39697,-0.96577 0.63574,-1.38838z" fill="#060901"/><path d="M135.05083,72.3605c0.24272,-0.0917 0.68042,-0.23701 0.93574,-0.18823c5.21895,0.99624 10.46016,1.97153 15.63208,3.20142c1.24805,0.29663 5.74072,1.20586 6.52441,1.95322l-0.104,0.14546l-0.52441,0.05508c0.37939,0.52573 2.07422,0.14473 1.90869,1.58979c-0.6167,-0.01597 -2.25146,-1.00796 -3.33545,-1.26357c-3.28125,-0.77388 -6.67236,-1.47202 -9.97778,-2.13135c-2.677,-0.53408 -7.49487,-1.86343 -10.14302,-1.83047c-0.0813,0.04951 -0.16157,0.10049 -0.24097,0.15278c-1.14961,0.76187 -1.26152,1.33813 -1.52417,2.6042c-0.20361,-1.14331 -0.19966,-1.72705 -0.20332,-2.8979c0.05068,-0.6334 0.59517,-1.02729 1.0522,-1.39043z" fill="#33440f"/><path d="M182.04053,99.73462c0.07617,0.94673 0.14795,1.95293 0.25488,2.89365c-4.22168,-0.10342 -8.59863,0.1585 -12.84375,-0.11265c-0.5376,-0.6022 -1.06787,-1.34531 -1.38281,-2.09458c4.13672,-0.13652 9.28271,0.0646 13.46045,-0.15527c0.30762,-0.01611 0.37646,-0.2751 0.51123,-0.53115z" fill="#33440f"/><path d="M167.80811,48.92197c3.28271,0.41733 9.09521,-0.39126 12.17432,0.29355c-2.51807,0.54609 -8.87988,0.30234 -11.78613,0.24639c-0.97705,1.34736 -1.62158,2.70747 -2.4624,3.89766l-0.15381,-0.29194c0.0293,-0.73008 1.72705,-3.21387 2.22803,-4.14565z" fill="#81a830"/><path d="M180.66797,100.15664c0.12451,-1.20234 0.41895,-1.7855 0.62402,-2.87915c0.17725,-0.9438 0.22559,-2.15815 0.34277,-3.15996c0.06152,1.66392 0.08496,4.03154 0.40576,5.61709c-0.13477,0.25605 -0.20361,0.51504 -0.51123,0.53115c-4.17773,0.21987 -9.32373,0.01875 -13.46045,0.15527c-0.14502,-0.47139 -0.16406,-0.94512 -0.20654,-1.43701l0.52588,0.98818c0.43359,0.23057 3.17725,0.06167 3.9082,0.06357c2.79199,0.00732 5.57959,0.11689 8.37158,0.12085z" fill="#1f2c05"/><path d="M120.56016,62.66777c0.50156,1.25684 0.28345,2.33247 0.11499,3.64585c-0.15308,1.19194 0.08789,3.46685 -0.3627,4.48418l-0.12246,-0.44736c-0.00352,-0.97134 -0.02168,-1.89756 0.07017,-2.86611c0.35654,-0.75615 0.22104,-2.40527 0.20068,-3.27891z" fill="#393c32"/><path d="M133.7833,76.57969c-0.28989,-1.10786 -0.65054,-3.52368 -0.13345,-4.5624l0.17856,0.02607l0.18267,0.48164l0.18677,0.02388l0.40679,-0.31772l0.44619,0.12935c-0.45703,0.36313 -1.00151,0.75703 -1.0522,1.39043c-0.11162,0.60879 -0.17212,2.14761 -0.21533,2.82876z" fill="#060901"/><path d="M143.32529,65.91899c0.61714,-0.88154 1.51538,-2.88252 2.27534,-3.12158c1.64985,-0.00703 3.10005,0.59253 4.63081,0.84609c3.40723,0.56411 2.29834,1.67695 3.28271,4.43423c1.40186,0.24185 7.52783,1.31499 8.35254,1.96582c0.31201,0.65127 -0.00439,1.78813 -0.16113,2.50723l0.17578,0.14517c0.17725,-0.77227 0.30469,-1.15225 0.58887,-1.89331c0.00293,0.14033 0.00146,0.28066 -0.00293,0.421c-0.03076,0.92769 -0.39697,3.25591 -1.0708,3.65684c-0.91846,0.54712 -5.10791,-0.63516 -6.12744,-0.85166l-8.63086,-1.79282c-3.45586,-0.74824 -7.50469,-1.58203 -11.01328,-2.3606c-0.71177,-0.15791 -1.38428,-0.06709 -1.94824,-0.69331c0.59663,-0.24844 0.62681,0.37896 1.57295,-0.00483c-0.50962,-0.12085 -0.99902,-0.17153 -1.3459,-0.54785c-0.4752,-0.84785 0.31597,-3.47827 0.89165,-4.21978c0.95215,-0.4396 6.96563,1.21919 8.52993,1.50937z" fill="url(#color-9)"/><path d="M161.70557,72.55078l0.17578,0.14517c0.17725,-0.77227 0.30469,-1.15225 0.58887,-1.89331c0.00293,0.14033 0.00146,0.28066 -0.00293,0.421c-0.03076,0.92769 -0.39697,3.25591 -1.0708,3.65684c-0.91846,0.54712 -5.10791,-0.63516 -6.12744,-0.85166l-8.63086,-1.79282c-3.45586,-0.74824 -7.50469,-1.58203 -11.01328,-2.3606c-0.71177,-0.15791 -1.38428,-0.06709 -1.94824,-0.69331c0.59663,-0.24844 0.62681,0.37896 1.57295,-0.00483c3.68188,0.46055 24.4623,5.54971 25.76309,5.19873c0.43359,-0.40093 0.52441,-1.19736 0.69287,-1.8252z" fill="#393c32"/><path d="M146.07817,64.48169c1.22065,-0.02871 3.80903,0.67808 5.08638,1.00195c0.06152,0.50537 0.20947,1.36816 0.02197,1.8063l-0.35303,0.04863c-0.90527,-0.20054 -5.221,-1.02949 -5.57856,-1.51802c0.19717,-0.61245 0.41748,-0.83306 0.82324,-1.33887z" fill="#060901"/><path d="M69.64658,27.99814c1.8895,-0.15059 3.85005,-0.05684 5.75259,-0.04468c3.18296,0.0208 6.36621,0.02549 9.54917,0.01392c12.75205,-0.13008 25.50498,-0.15557 38.25732,-0.07617l24.36709,-0.05376c6.93457,-0.07954 15.73096,-0.2417 22.6333,0.13169c-0.04834,0.37925 -0.0249,0.82046 -0.12598,1.18198c-0.54346,1.93828 -2.61621,3.2981 -3.78662,4.8082c-0.2417,0.31187 -2.82422,4.80586 -2.81689,4.85171c0.31787,0.04307 0.47607,0.06123 0.79541,0.06343c-0.06006,0.19336 0.00146,0.11938 -0.16113,0.24111l-26.0502,-0.00937c-3.77915,0.00469 -8.31079,-0.121 -12.03164,0.01963l-0.16128,0.30645c-0.33618,0.04819 -0.61626,0.07939 -0.95493,0.10532l-31.2832,0.03706l-10.05732,0.0082c-2.97275,-0.0208 -9.12686,-0.50171 -11.46563,1.61938c-1.19458,0.83364 -1.94575,1.35015 -2.67393,2.65737c-0.21592,0.3873 -0.40649,0.70547 -0.8061,0.92666c-1.20439,3.06885 -0.25605,16.8334 -0.78003,20.70557c-0.07852,-0.22456 -0.28901,-1.20586 -0.38218,-1.26548c-1.46265,-0.93428 -3.39141,-1.97988 -4.81084,-2.94111l-0.7166,-1.40625c-1.56372,-0.79058 -2.96265,-2.34551 -5.1189,-2.11304c2.66953,-1.63682 2.33643,-3.98013 -0.59136,-5.02236c-0.0939,-1.07534 -0.09727,-1.36831 0.02563,-2.44263c3.20508,-1.51919 3.49175,-3.72715 0.01743,-5.11055c-0.00791,-1.49092 0.07896,-3.05039 0.13989,-4.54541c4.77363,-0.32944 8.98975,-2.06895 11.40234,-6.37998c1.24351,-2.22173 1.47363,-3.80684 1.83457,-6.26689z" fill="#b9d975"/><path d="M68.62661,44.78628c0.92388,-3.0936 4.30459,-4.94077 7.32612,-5.55718c1.22358,-0.24961 3.56265,-0.10708 4.87148,-0.09902l9.04819,0.0438c12.052,-0.08936 24.10444,-0.10532 36.15659,-0.04805l-0.16128,0.30645c-0.33618,0.04819 -0.61626,0.07939 -0.95493,0.10532l-31.2832,0.03706l-10.05732,0.0082c-2.97275,-0.0208 -9.12686,-0.50171 -11.46563,1.61938c-1.19458,0.83364 -1.94575,1.35015 -2.67393,2.65737c-0.21592,0.3873 -0.40649,0.70547 -0.8061,0.92666z" fill="#c7d5aa"/><path d="M164.11084,39.11558l36.53467,0.01436c6.28857,0.00366 13.25244,-0.17065 19.48389,0.02534c1.46924,-0.09888 4.12354,0.57993 5.18115,1.61748c1.19824,0.848 2.10645,1.82271 2.74658,3.14883l-0.06592,0.1418c1.3916,2.57886 0.9668,8.00347 1.01074,11.08564l0.12012,18.802c0.00732,1.14873 -0.02197,4.852 0.13184,5.86816c-0.00879,4.57441 0.02783,9.14868 0.1084,13.72236c0.06152,3.63984 0.33691,7.5479 -0.23584,11.12798c-0.5376,3.3605 -4.96875,6.62432 -8.31006,6.24155c-0.29443,-0.22017 -0.68994,-0.36929 -1.03418,-0.52017c1.74463,0.03164 3.86426,-0.22295 5.25586,-1.35967l0.70898,-0.42114c0.18457,-1.36846 0.36328,-0.36489 0.89941,-1.3957l-0.07764,-0.15586c-0.33398,0.30791 -0.63135,0.66855 -1.05176,0.74429l-0.09229,-0.11323c3.29443,-3.0312 2.35986,-7.49326 2.35107,-11.67305l-0.15527,-19.16074l-0.09668,-17.53301c0,-2.67187 0.36182,-12.34468 -0.55518,-14.22349l-0.21387,0.03882c-0.68994,-0.42788 -1.19238,-1.41431 -1.61133,-2.12241c-1.5791,-3.14414 -8.10498,-2.23374 -10.97461,-2.37832c-2.36572,-0.11909 -4.94238,0.18662 -7.31689,-0.00615c-0.68701,0.25239 -0.49072,0.48838 -0.87158,0.69141c-0.06299,-0.12495 -0.17725,-0.28872 -0.25635,-0.41074l-0.36914,0.13857l-0.18604,-0.29106c-1.06641,-0.24814 -10.3125,-0.18223 -11.8374,-0.18618l-28.45752,-0.08892c-3.45703,0.04248 -6.91406,0.06226 -10.37109,0.05947c-1.51465,-0.00308 -3.67969,0.05186 -5.14746,-0.09551c1.73145,-0.23452 5.17969,0.14106 6.36475,-0.15996c-0.26807,-0.13096 -0.89062,-0.04775 -1.22168,-0.02842l-0.04248,-0.12129c0.63281,-0.4459 3.90234,-0.48428 4.92188,-0.56689c-2.82568,-0.15645 -6.5874,0.1021 -9.53174,0.0271c-8.23901,-0.20991 -16.71021,0.1481 -24.9334,-0.06123c0.33867,-0.02593 0.61875,-0.05713 0.95493,-0.10532l0.16128,-0.30645c3.72085,-0.14062 8.25249,-0.01494 12.03164,-0.01963z" fill="url(#color-10)"/><path d="M164.11084,39.11558l36.53467,0.01436c6.28857,0.00366 13.25244,-0.17065 19.48389,0.02534c-0.68994,0.421 -1.50439,-0.05376 -2.11816,0.34907c-3.79834,-0.13682 -7.65674,-0.10415 -11.45361,-0.02871c-2.22363,0.04424 -4.61572,-0.22222 -6.93604,-0.14092c-1.96582,0.06899 -4.05762,0.16406 -6.00879,0.17388l-34.23486,0.06313c-2.82568,-0.15645 -6.5874,0.1021 -9.53174,0.0271c-8.23901,-0.20991 -16.71021,0.1481 -24.9334,-0.06123c0.33867,-0.02593 0.61875,-0.05713 0.95493,-0.10532l0.16128,-0.30645c3.72085,-0.14062 8.25249,-0.01494 12.03164,-0.01963z" fill="#c7d5aa"/><path d="M225.74707,108.61011c1.77979,-1.24863 3.11133,-3.16333 3.24463,-5.3417c0.30469,-4.98208 -0.02051,-10.29258 -0.03809,-15.26865l-0.24463,-27.95405c-0.04102,-4.16353 -0.0249,-8.32676 -0.05713,-12.48999c-0.00879,-1.09673 -0.63428,-2.37495 -0.66064,-3.49233c1.3916,2.57886 0.9668,8.00347 1.01074,11.08564l0.12012,18.802c0.00732,1.14873 -0.02197,4.852 0.13184,5.86816c-0.00879,4.57441 0.02783,9.14868 0.1084,13.72236c0.06152,3.63984 0.33691,7.5479 -0.23584,11.12798c-0.5376,3.3605 -4.96875,6.62432 -8.31006,6.24155c-0.29443,-0.22017 -0.68994,-0.36929 -1.03418,-0.52017c1.74463,0.03164 3.86426,-0.22295 5.25586,-1.35967z" fill="#2e3b13"/><path d="M220.12939,39.15527c1.46924,-0.09888 4.12354,0.57993 5.18115,1.61748c-2.56641,-0.46626 -4.67285,-1.11533 -7.29932,-1.26841c0.61377,-0.40283 1.42822,0.07192 2.11816,-0.34907z" fill="#90a26b"/><path d="M81.32769,110.29292c7.9749,0.04028 15.9498,0.04014 23.92471,-0.00073l65.46929,0.10166l23.63379,0.01597c2.04932,0.02021 6.63281,-0.15381 8.3291,0.04028c5.74072,-0.38745 11.55322,0.23525 17.09766,-0.05918c0.34424,0.15088 0.73975,0.3 1.03418,0.52017l-1.33447,0.14941c-1.06494,-0.1938 -5.79932,-0.10752 -7.1499,-0.08848c-3.08789,0.05684 -6.17725,0.02974 -9.26514,-0.08115c-1.24658,0.10181 -3.61816,0.02065 -4.98926,0.02417l-10.28174,-0.00161l-23.7832,-0.01084l-82.16294,-0.01714l-1.0251,-0.18838z" fill="#060901"/><path d="M202.68457,110.4501c5.74072,-0.38745 11.55322,0.23525 17.09766,-0.05918c0.34424,0.15088 0.73975,0.3 1.03418,0.52017l-1.33447,0.14941c-1.06494,-0.1938 -5.79932,-0.10752 -7.1499,-0.08848c-3.08789,0.05684 -6.17725,0.02974 -9.26514,-0.08115c-1.40039,-0.49468 -23.00537,-0.09434 -26.28662,-0.19219c3.44971,-0.45366 25.1001,0.2499 25.9043,-0.24858z" fill="#0a0f00"/><path d="M229.87646,78.50786c-0.0498,5.28267 0.39404,10.69805 0.25195,15.99639c-0.0542,1.96904 0.41016,5.96719 -0.03809,7.66333l-0.15234,-0.11338c-0.04395,-0.43594 -0.08203,-0.87231 -0.11279,-1.30928c-0.09229,0.95317 0.09082,2.27212 0.03076,3.34688c-0.0498,0.87788 -0.31494,1.83267 -0.28125,2.59058c-0.7002,0.81021 -1.31104,1.52783 -2.11377,2.24546c-0.73242,0.65684 -1.45459,1.03184 -2.10205,1.74756c-2.62646,0.74648 -3.22705,1.14771 -5.87695,0.38511l1.33447,-0.14941c3.34131,0.38276 7.77246,-2.88105 8.31006,-6.24155c0.57275,-3.58008 0.29736,-7.48813 0.23584,-11.12798c-0.08057,-4.57368 -0.11719,-9.14795 -0.1084,-13.72236c0.07324,0.23848 0.14502,0.87671 0.18311,1.15313c-0.16846,0.22588 0.37061,-2.24766 0.43945,-2.46445z" fill="#89a450"/><path d="M228.05713,43.92158c0.30176,0.33354 0.38818,0.42583 0.83936,0.55239c0.85254,0.93472 1.07666,10.57046 1.01074,12.29971c-0.04834,1.25068 -0.95508,2.55073 -0.44092,3.64028l0.19922,-0.73652c0.30176,0.90161 0.24756,5.53755 -0.29004,6.34233c0.02197,1.57178 0.08789,3.08994 0.09521,4.67988c0.14795,0.05112 0.26367,0.08437 0.41602,0.1248c0.20801,0.8521 -0.01904,6.40972 -0.01025,7.6834c-0.06885,0.2168 -0.60791,2.69033 -0.43945,2.46445c-0.03809,-0.27642 -0.10986,-0.91465 -0.18311,-1.15313c-0.15381,-1.01616 -0.12451,-4.71943 -0.13184,-5.86816l-0.12012,-18.802c-0.04395,-3.08218 0.38086,-8.50679 -1.01074,-11.08564z" fill="#81994e"/><path d="M74.77266,122.73237c1.304,-0.24609 8.56406,-0.0022 10.08706,0.01523c3.23218,0.03721 23.49331,-0.51987 25.24307,0.13638c-1.72837,0.05186 -3.46567,0.06636 -5.19492,0.06445c-10.02891,-0.01025 -20.11494,0.11367 -30.13521,-0.21606z" fill="#4f681c"/><path d="M67.9374,103.74082c0.98364,1.2353 0.74868,3.86514 3.73682,4.8939c0.0791,0.02725 0.07148,0.03384 0.13535,0.1002c2.0313,2.22729 6.74019,1.29185 9.51812,1.55801l-0.50303,0.40415c-0.91274,0.2127 -4.99907,0.22236 -6.0561,-0.01992c-2.79727,-0.64116 -4.35425,-1.67388 -5.94521,-4.01792c-0.5354,-1.0582 -0.7144,-1.78286 -0.88594,-2.91841z" fill="#2e3b13"/><path d="M68.82334,106.65923c1.59097,2.34404 3.14795,3.37676 5.94521,4.01792c1.05703,0.24229 5.14336,0.23262 6.0561,0.01992l1.0251,0.18838c-1.29067,0.05771 -2.69355,0.21167 -3.98892,0.32842l0.52397,-0.00762c-0.87158,0.23145 -2.04565,0.21987 -2.99282,0.15337c-2.86787,-0.20127 -4.46016,-1.31177 -6.38862,-3.33076c-0.33545,-0.35112 -0.23774,-0.9063 -0.18003,-1.36963z" fill="#89a450"/><path d="M62.52363,111.68423c1.00591,-0.03838 3.04849,1.62158 3.346,2.74072c-1.21729,-1.23765 -1.91631,-1.73833 -3.346,-2.74072z" fill="#81a830"/></g></svg></svg>